<svg width="101" height="35" viewBox="0 0 101 35" fill="none" xmlns="http://www.w3.org/2000/svg">
<path d="M93.3921 0.144643H7.61222C7.31946 0.144643 7.0302 0.144643 6.73822 0.146368C6.49379 0.148094 6.25132 0.153105 6.00455 0.157323C5.46846 0.164139 4.93362 0.215094 4.4047 0.309746C3.87651 0.406458 3.36487 0.588788 2.88709 0.850569C2.40988 1.11456 1.97385 1.4576 1.5948 1.86723C1.21377 2.27571 0.896143 2.74786 0.654146 3.26551C0.411481 3.78214 0.243216 4.33576 0.155164 4.90724C0.0662736 5.478 0.0184411 6.05534 0.0120953 6.63408C0.00468644 6.89854 0.00390404 7.16388 0 7.42837V27.3657C0.00390404 27.6336 0.00468644 27.893 0.0120953 28.1609C0.018443 28.7397 0.0662755 29.317 0.155164 29.8877C0.242973 30.4595 0.411248 31.0134 0.654146 31.5303C0.896033 32.0462 1.2137 32.5165 1.5948 32.9227C1.97241 33.3341 2.40873 33.6774 2.88709 33.9394C3.36487 34.2019 3.87645 34.3853 4.4047 34.4835C4.93371 34.5774 5.46849 34.6284 6.00455 34.636C6.25132 34.6419 6.49379 34.6452 6.73822 34.6452C7.0302 34.6469 7.31947 34.6469 7.61222 34.6469H93.3921C93.679 34.6469 93.9706 34.6469 94.2575 34.6452C94.5008 34.6452 94.7503 34.6419 94.9935 34.636C95.5286 34.6288 96.0624 34.5778 96.5903 34.4835C97.1202 34.3846 97.6336 34.2012 98.1137 33.9394C98.5917 33.6773 99.0276 33.334 99.4049 32.9227C99.785 32.5149 100.103 32.045 100.348 31.5303C100.589 31.0131 100.756 30.4592 100.842 29.8877C100.932 29.3169 100.981 28.7397 100.991 28.1609C100.994 27.893 100.994 27.6336 100.994 27.3657C101 27.0524 101 26.7407 101 26.4223V8.3701C101 8.05423 101 7.74088 100.994 7.42837C100.994 7.16388 100.994 6.89854 100.991 6.63404C100.981 6.05525 100.932 5.47804 100.842 4.9072C100.756 4.33605 100.589 3.78248 100.348 3.26548C99.8554 2.22789 99.0739 1.3833 98.1137 0.850491C97.6336 0.58935 97.1202 0.407068 96.5903 0.309668C96.0624 0.214599 95.5286 0.163626 94.9935 0.157202C94.7503 0.152993 94.5008 0.147938 94.2575 0.146256C93.9706 0.144531 93.679 0.144643 93.3921 0.144643Z" fill="#A6A6A6"/>
<path d="M6.74214 33.8991C6.4989 33.8991 6.26152 33.8957 6.02019 33.8898C5.52023 33.8828 5.02145 33.8358 4.52792 33.7491C4.06773 33.6635 3.62193 33.5042 3.20523 33.2766C2.79234 33.0508 2.41576 32.7547 2.0899 32.3997C1.75933 32.0488 1.48411 31.642 1.27515 31.1951C1.0639 30.7454 0.917694 30.2633 0.841639 29.7657C0.759506 29.231 0.715068 28.6903 0.70871 28.1484C0.703648 27.9665 0.697021 27.3608 0.697021 27.3608V7.43524C0.697021 7.43524 0.704079 6.83886 0.70875 6.66365C0.714838 6.12255 0.759015 5.58274 0.840896 5.04888C0.917097 4.54991 1.06342 4.06644 1.27479 3.61522C1.48297 3.16869 1.75666 2.76149 2.08524 2.40941C2.41346 2.05399 2.79125 1.75639 3.20483 1.52747C3.62058 1.30052 4.06554 1.14236 4.5248 1.05829C5.01995 0.9708 5.52046 0.923497 6.02215 0.916782L6.74254 0.90625H94.2536L94.9826 0.917204C95.4798 0.923587 95.9757 0.970467 96.4663 1.05745C96.9302 1.14257 97.3798 1.30183 97.8003 1.53C98.6289 1.99134 99.3031 2.72121 99.7284 3.61733C99.9364 4.06543 100.08 4.54495 100.156 5.03961C100.239 5.57785 100.285 6.12191 100.294 6.66744C100.297 6.91172 100.297 7.17411 100.297 7.43524C100.303 7.7587 100.303 8.06657 100.303 8.37697V26.4291C100.303 26.7425 100.303 27.0483 100.297 27.3566C100.297 27.6371 100.297 27.894 100.294 28.1585C100.284 28.6943 100.239 29.2286 100.157 29.7572C100.083 30.2584 99.9373 30.7443 99.7261 31.1977C99.5157 31.6397 99.242 32.0431 98.9153 32.3929C98.5891 32.7499 98.2119 33.0477 97.798 33.2749C97.3787 33.5043 96.9298 33.6642 96.4663 33.7491C95.9728 33.8362 95.474 33.8833 94.974 33.8898C94.7402 33.8957 94.4953 33.8991 94.2576 33.8991L93.3921 33.9008L6.74214 33.8991Z" fill="black"/>
<path d="M19.7771 17.6631C19.7857 16.9431 19.9627 16.2372 20.2917 15.611C20.6206 14.9849 21.0908 14.4588 21.6585 14.0817C21.2979 13.5252 20.8221 13.0672 20.269 12.7441C19.7158 12.4211 19.1006 12.2418 18.4721 12.2205C17.1315 12.0685 15.8317 13.0873 15.1486 13.0873C14.4522 13.0873 13.4003 12.2356 12.2676 12.2608C11.535 12.2864 10.821 12.5166 10.1952 12.9289C9.56933 13.3413 9.05304 13.9217 8.6966 14.6138C7.15255 17.502 8.30427 21.7467 9.78334 24.0813C10.5234 25.2244 11.3882 26.5014 12.5199 26.4561C13.6273 26.4065 14.0408 25.6932 15.3776 25.6932C16.7019 25.6932 17.0899 26.4561 18.2445 26.4273C19.4328 26.4065 20.1815 25.2791 20.8955 24.1251C21.4272 23.3105 21.8363 22.4102 22.1077 21.4576C21.4174 21.1421 20.8283 20.6141 20.4138 19.9393C19.9994 19.2645 19.7779 18.4729 19.7771 17.6631Z" fill="white"/>
<path d="M17.5964 10.7066C18.2443 9.86072 18.5634 8.77348 18.4862 7.67578C17.4963 7.78885 16.582 8.30335 15.9253 9.11678C15.6043 9.51416 15.3584 9.97646 15.2017 10.4773C15.045 10.978 14.9806 11.5075 15.0122 12.0354C15.5073 12.0409 15.9971 11.9242 16.4447 11.6941C16.8923 11.4639 17.2861 11.1263 17.5964 10.7066Z" fill="white"/>
<path d="M28.4663 12.8362V8.41682H26.9678V7.68945H30.7016V8.41681H29.2062V12.8362H28.4663Z" fill="white"/>
<path d="M34.1425 11.7819C34.0461 12.1369 33.8372 12.444 33.5524 12.6494C33.2677 12.8548 32.9251 12.9455 32.5847 12.9056C32.3479 12.9124 32.1125 12.8634 31.8949 12.762C31.6774 12.6606 31.4828 12.5093 31.3248 12.3186C31.1668 12.1278 31.0491 11.9022 30.9799 11.6574C30.9107 11.4126 30.8916 11.1544 30.924 10.9009C30.8925 10.6465 30.9119 10.3878 30.9809 10.1422C31.05 9.89669 31.1671 9.67004 31.3242 9.47763C31.4814 9.28522 31.675 9.13153 31.8919 9.02698C32.1089 8.92244 32.3441 8.86946 32.5816 8.87165C33.5819 8.87165 34.1853 9.61 34.1853 10.8297V11.0971H31.6468V11.1401C31.6357 11.2826 31.6522 11.4261 31.6954 11.5613C31.7387 11.6965 31.8075 11.8204 31.8977 11.9252C31.9878 12.03 32.0972 12.1132 32.2189 12.1696C32.3406 12.226 32.4718 12.2543 32.6042 12.2528C32.7739 12.2748 32.9458 12.2418 33.0981 12.1579C33.2504 12.0741 33.3762 11.9432 33.4595 11.7819L34.1425 11.7819ZM31.6467 10.5302H33.4626C33.4715 10.3999 33.4551 10.2689 33.4145 10.1458C33.3738 10.0227 33.3097 9.91018 33.2264 9.81543C33.143 9.72067 33.0423 9.64579 32.9306 9.59561C32.8188 9.54543 32.6986 9.52106 32.5777 9.52405C32.455 9.52239 32.3332 9.54727 32.2195 9.59725C32.1059 9.64723 32.0026 9.72129 31.9158 9.81506C31.8291 9.90883 31.7606 10.0204 31.7144 10.1432C31.6682 10.2661 31.6452 10.3977 31.6467 10.5302ZM32.1551 8.29718L32.9839 7.07031H33.8158L32.888 8.29718H32.1551Z" fill="white"/>
<path d="M35.1707 7.4375H35.8801V12.8377H35.1707V7.4375Z" fill="white"/>
<path d="M40.0848 11.7819C39.9884 12.1369 39.7796 12.444 39.4948 12.6494C39.2101 12.8548 38.8675 12.9455 38.5271 12.9056C38.2902 12.9124 38.0549 12.8634 37.8373 12.762C37.6197 12.6606 37.4252 12.5093 37.2672 12.3186C37.1092 12.1278 36.9915 11.9022 36.9223 11.6574C36.8531 11.4126 36.834 11.1544 36.8664 10.9009C36.8349 10.6465 36.8543 10.3878 36.9233 10.1422C36.9924 9.89669 37.1094 9.67004 37.2666 9.47763C37.4238 9.28522 37.6174 9.13153 37.8343 9.02698C38.0513 8.92244 38.2864 8.86946 38.524 8.87165C39.5243 8.87165 40.1277 9.61 40.1277 10.8297V11.0971H37.5891V11.1401C37.578 11.2826 37.5946 11.4261 37.6378 11.5613C37.681 11.6965 37.7499 11.8204 37.8401 11.9252C37.9302 12.03 38.0396 12.1132 38.1613 12.1696C38.2829 12.226 38.4142 12.2543 38.5466 12.2528C38.7163 12.2748 38.8882 12.2418 39.0405 12.1579C39.1928 12.0741 39.3186 11.9432 39.4018 11.7819L40.0848 11.7819ZM37.5891 10.5302H39.405C39.4139 10.3999 39.3975 10.2689 39.3568 10.1458C39.3161 10.0227 39.2521 9.91018 39.1687 9.81543C39.0854 9.72067 38.9846 9.64579 38.8729 9.59561C38.7612 9.54543 38.641 9.52106 38.52 9.52405C38.3973 9.52239 38.2756 9.54728 38.1619 9.59726C38.0482 9.64724 37.945 9.72129 37.8582 9.81507C37.7715 9.90884 37.7029 10.0204 37.6567 10.1432C37.6105 10.2661 37.5875 10.3977 37.5891 10.5302ZM38.0975 8.29718L38.9263 7.07031H39.7582L38.8304 8.29718H38.0975Z" fill="white"/>
<path d="M43.4342 10.2211C43.389 10.0184 43.2785 9.83993 43.1227 9.71814C42.967 9.59635 42.7763 9.53925 42.5851 9.55717C41.991 9.55717 41.6277 10.0524 41.6277 10.8854C41.6277 11.7329 41.9942 12.2392 42.5851 12.2392C42.7744 12.263 42.9651 12.2108 43.1215 12.0925C43.2778 11.9741 43.389 11.7977 43.4342 11.5964H44.1242C44.0786 11.9923 43.8925 12.3532 43.6057 12.602C43.319 12.8509 42.9541 12.968 42.589 12.9285C42.3487 12.9368 42.1095 12.8878 41.8884 12.7851C41.6672 12.6823 41.4694 12.5282 41.3087 12.3336C41.1479 12.1391 41.0283 11.9086 40.958 11.6585C40.8878 11.4083 40.8686 11.1445 40.9019 10.8855C40.8703 10.6283 40.8906 10.3668 40.9616 10.1191C41.0325 9.87144 41.1523 9.64359 41.3126 9.45146C41.4729 9.25934 41.6698 9.10758 41.8896 9.00678C42.1094 8.90597 42.3468 8.85856 42.5852 8.86784C42.9532 8.83097 43.32 8.95175 43.6074 9.20449C43.8949 9.45723 44.0803 9.82198 44.1242 10.2211L43.4342 10.2211Z" fill="white"/>
<path d="M45.066 7.4375H45.7692V9.57789H45.8253C45.9197 9.35421 46.0755 9.16739 46.2717 9.04288C46.4678 8.91838 46.6947 8.86224 46.9215 8.88212C47.0955 8.87189 47.2695 8.90328 47.431 8.97404C47.5925 9.04481 47.7375 9.15321 47.8558 9.29151C47.974 9.42981 48.0626 9.5946 48.1151 9.77413C48.1676 9.95366 48.1828 10.1435 48.1596 10.3301V12.8378H47.4493V10.5192C47.4493 9.89882 47.1819 9.58462 46.6806 9.58462C46.5586 9.57382 46.436 9.59193 46.3212 9.63769C46.2064 9.68345 46.1023 9.75576 46.0161 9.84955C45.9298 9.94334 45.8636 10.0564 45.8221 10.1807C45.7805 10.305 45.7646 10.4376 45.7754 10.5693V12.8377H45.0659L45.066 7.4375Z" fill="white"/>
<path d="M49.0518 11.7487C49.0518 11.0449 49.5336 10.6392 50.3889 10.5815L51.3627 10.5205V10.183C51.3627 9.77005 51.1116 9.53688 50.6267 9.53688C50.2306 9.53688 49.9562 9.69502 49.8774 9.97144H49.1905C49.263 9.29988 49.8439 8.86914 50.6594 8.86914C51.5607 8.86914 52.0686 9.35711 52.0686 10.183V12.8544H51.386V12.3049H51.3299C51.216 12.502 51.056 12.6627 50.8663 12.7705C50.6766 12.8784 50.464 12.9295 50.2501 12.9188C50.0992 12.9359 49.9467 12.9184 49.8023 12.8674C49.658 12.8164 49.5251 12.7331 49.4122 12.6229C49.2993 12.5127 49.2089 12.3779 49.1468 12.2273C49.0847 12.0768 49.0524 11.9137 49.0518 11.7487ZM51.3627 11.4146V11.0877L50.4848 11.1488C49.9897 11.1848 49.7651 11.368 49.7651 11.7126C49.7651 12.0645 50.0458 12.2693 50.4318 12.2693C50.5449 12.2818 50.6591 12.2693 50.7677 12.2328C50.8763 12.1963 50.977 12.1363 51.0638 12.0566C51.1507 11.9768 51.2219 11.8789 51.2732 11.7686C51.3246 11.6583 51.355 11.5379 51.3627 11.4146Z" fill="white"/>
<path d="M53.1794 8.94813H53.8624V9.54761H53.9154C53.9919 9.3395 54.127 9.1631 54.3014 9.04374C54.4758 8.92438 54.6805 8.8682 54.8861 8.88326C54.9924 8.8817 55.0985 8.89251 55.2027 8.91548V9.67696C55.0725 9.6467 54.9397 9.63107 54.8066 9.63032C54.6896 9.61889 54.5717 9.63421 54.4604 9.6753C54.3492 9.71638 54.247 9.78233 54.1606 9.86889C54.0742 9.95545 54.0054 10.0607 53.9586 10.1779C53.9118 10.2951 53.8881 10.4217 53.8889 10.5495V12.8579H53.1794L53.1794 8.94813Z" fill="white"/>
<path d="M55.8553 13.2189H56.5811C56.6412 13.5006 56.9413 13.6826 57.4201 13.6826C58.011 13.6826 58.3611 13.3794 58.3611 12.8659V12.1205H58.3081C58.1968 12.3292 58.0343 12.5005 57.8385 12.6157C57.6427 12.7308 57.4213 12.7852 57.1986 12.7729C56.281 12.7729 55.7134 12.0063 55.7134 10.8435C55.7134 9.65919 56.2872 8.88167 57.2056 8.88167C57.4338 8.87309 57.6598 8.93243 57.8589 9.0532C58.058 9.17397 58.2226 9.35154 58.3346 9.5665H58.3907V8.94612H59.0706V12.8621C59.0706 13.7504 58.4266 14.3139 57.4099 14.3139C56.5118 14.3139 55.9309 13.8789 55.8553 13.2189ZM58.3744 10.8397C58.3744 10.066 58.004 9.57029 57.3998 9.57029C56.7893 9.57029 56.4463 10.066 56.4463 10.8397C56.4463 11.6138 56.7893 12.1095 57.3998 12.1095C58.0079 12.1095 58.3744 11.6176 58.3744 10.8397Z" fill="white"/>
<path d="M63.2411 11.7988C63.1447 12.1561 62.9358 12.4652 62.6511 12.672C62.3663 12.8788 62.0237 12.9701 61.6833 12.9299C61.4465 12.9367 61.2111 12.8874 60.9936 12.7853C60.776 12.6833 60.5815 12.531 60.4235 12.339C60.2655 12.147 60.1478 11.9198 60.0785 11.6734C60.0093 11.427 59.9903 11.1671 60.0227 10.9119C59.9911 10.6558 60.0105 10.3954 60.0796 10.1482C60.1486 9.90104 60.2657 9.67289 60.4229 9.4792C60.58 9.28551 60.7736 9.13081 60.9906 9.02557C61.2075 8.92033 61.4427 8.867 61.6802 8.86921C62.6805 8.86921 63.284 9.61245 63.284 10.8402V11.1094H60.7454V11.1526C60.7343 11.2961 60.7509 11.4405 60.7941 11.5766C60.8373 11.7127 60.9062 11.8375 60.9963 11.943C61.0865 12.0484 61.1959 12.1322 61.3175 12.189C61.4392 12.2458 61.5704 12.2743 61.7028 12.2727C61.8725 12.2949 62.0445 12.2616 62.1968 12.1772C62.3491 12.0928 62.4749 11.9611 62.5581 11.7987L63.2411 11.7988ZM60.7454 10.5388H62.5612C62.5701 10.4076 62.5538 10.2758 62.5131 10.1518C62.4724 10.0279 62.4083 9.91462 62.325 9.81924C62.2416 9.72385 62.1409 9.64848 62.0292 9.59797C61.9174 9.54745 61.7972 9.52292 61.6763 9.52593C61.5536 9.52426 61.4318 9.54932 61.3181 9.59963C61.2045 9.64994 61.1012 9.72449 61.0145 9.81888C60.9277 9.91328 60.8592 10.0256 60.813 10.1492C60.7668 10.2729 60.7438 10.4053 60.7454 10.5388Z" fill="white"/>
<path d="M64.2368 8.94813H64.9198V9.54761H64.9729C65.0493 9.3395 65.1845 9.1631 65.3589 9.04374C65.5332 8.92438 65.7379 8.8682 65.9435 8.88326C66.0498 8.8817 66.1559 8.89251 66.2601 8.91548V9.67696C66.1299 9.6467 65.9972 9.63107 65.864 9.63032C65.747 9.61888 65.6291 9.6342 65.5178 9.67528C65.4065 9.71636 65.3044 9.7823 65.218 9.86887C65.1316 9.95543 65.0627 10.0607 65.016 10.1779C64.9692 10.2951 64.9454 10.4217 64.9463 10.5495V12.8579H64.2368V8.94813Z" fill="white"/>
<path d="M68.8164 10.894C68.8164 9.66675 69.4004 8.88927 70.3087 8.88927C70.5333 8.87809 70.7563 8.93623 70.9516 9.05689C71.1468 9.17756 71.3062 9.35577 71.4111 9.57069H71.4641V7.4375H72.1736V12.8377H71.4938V12.2241H71.4376C71.3246 12.4376 71.1596 12.6136 70.9606 12.733C70.7616 12.8525 70.5362 12.9108 70.3087 12.9018C69.3941 12.9018 68.8164 12.1243 68.8164 10.894ZM69.5493 10.894C69.5493 11.7179 69.9087 12.2136 70.5099 12.2136C71.1078 12.2136 71.4774 11.7107 71.4774 10.8974C71.4774 10.0879 71.104 9.57789 70.5099 9.57789C69.9126 9.57789 69.5493 10.077 69.5493 10.894Z" fill="white"/>
<path d="M73.1326 11.7487C73.1326 11.0449 73.6144 10.6392 74.4697 10.5815L75.4435 10.5205V10.183C75.4435 9.77005 75.1924 9.53688 74.7075 9.53688C74.3114 9.53688 74.037 9.69502 73.9582 9.97144H73.2713C73.3439 9.29988 73.9247 8.86914 74.7402 8.86914C75.6415 8.86914 76.1499 9.35711 76.1499 10.183V12.8544H75.4669V12.3049H75.4107C75.2968 12.502 75.1368 12.6627 74.9471 12.7705C74.7574 12.8784 74.5447 12.9295 74.3309 12.9188C74.18 12.9359 74.0275 12.9184 73.8831 12.8674C73.7388 12.8164 73.6059 12.7331 73.493 12.6229C73.3801 12.5126 73.2897 12.3779 73.2276 12.2273C73.1655 12.0767 73.1332 11.9137 73.1326 11.7487ZM75.4435 11.4146V11.0877L74.5656 11.1488C74.0705 11.1848 73.846 11.368 73.846 11.7126C73.846 12.0645 74.1266 12.2693 74.5126 12.2693C74.6257 12.2817 74.7399 12.2693 74.8485 12.2328C74.9571 12.1962 75.0578 12.1363 75.1446 12.0566C75.2315 11.9768 75.3027 11.8789 75.354 11.7686C75.4054 11.6583 75.4358 11.5379 75.4435 11.4146Z" fill="white"/>
<path d="M77.2612 8.94455H77.9442V9.56566H77.9972C78.0872 9.34258 78.2389 9.15558 78.4312 9.03071C78.6235 8.90585 78.8468 8.84935 79.07 8.86908C79.245 8.85478 79.4206 8.88346 79.584 8.95301C79.7473 9.02255 79.8942 9.13118 80.0137 9.27084C80.1332 9.41049 80.2222 9.5776 80.2743 9.75978C80.3264 9.94196 80.3401 10.1345 80.3144 10.3233V12.8543H79.6049V10.517C79.6049 9.88872 79.3538 9.57626 78.8291 9.57626C78.7104 9.57024 78.5918 9.59223 78.4816 9.6407C78.3714 9.68918 78.2721 9.763 78.1906 9.85711C78.109 9.95121 78.0472 10.0634 78.0092 10.1859C77.9713 10.3085 77.9581 10.4385 77.9707 10.5671V12.8543H77.2612V8.94455Z" fill="white"/>
<path d="M82.7255 8.86914C83.534 8.86914 84.0626 9.27826 84.132 9.96763H83.4513C83.3859 9.6806 83.1278 9.49746 82.7255 9.49746C82.3294 9.49746 82.0285 9.70181 82.0285 10.0071C82.0285 10.2406 82.2102 10.3878 82.6 10.4849L83.1972 10.6354C83.8809 10.8079 84.2014 11.1276 84.2014 11.7021C84.2014 12.4381 83.5707 12.9298 82.7122 12.9298C81.8569 12.9298 81.2995 12.5097 81.2363 11.8169H81.9466C82.0078 11.9818 82.1182 12.1196 82.26 12.2081C82.4018 12.2965 82.5668 12.3307 82.7286 12.3049C83.1707 12.3049 83.4849 12.0896 83.4849 11.7771C83.4849 11.5439 83.3165 11.393 82.9563 11.2997L82.3294 11.1416C81.6456 10.9656 81.3291 10.632 81.3291 10.0503C81.3291 9.35712 81.9131 8.86914 82.7255 8.86914Z" fill="white"/>
<path d="M28.1011 15.7266H29.5855V26.4382H28.1011V15.7266Z" fill="white"/>
<path d="M31.374 19.672L32.1849 15.7266H33.6272L32.6449 19.672H31.374Z" fill="white"/>
<path d="M39.2369 23.5431H35.4579L34.5504 26.4382H32.9497L36.5291 15.7266H38.1921L41.7716 26.4382H40.1436L39.2369 23.5431ZM35.8493 22.2071H38.8448L37.3681 17.5081H37.3268L35.8493 22.2071Z" fill="white"/>
<path d="M49.5012 22.5356C49.5012 24.9624 48.2989 26.5215 46.4847 26.5215C46.0251 26.5475 45.568 26.4331 45.1658 26.1915C44.7636 25.9498 44.4325 25.5907 44.2104 25.1552H44.1761V29.0233H42.6924V18.63H44.1285V19.9289H44.1558C44.3881 19.4955 44.7248 19.1382 45.1301 18.8951C45.5353 18.652 45.994 18.5322 46.4574 18.5483C48.2919 18.5483 49.5012 20.1151 49.5012 22.5356ZM47.9762 22.5356C47.9762 20.9541 47.2199 19.9146 46.066 19.9146C44.9324 19.9146 44.1699 20.976 44.1699 22.5356C44.1699 24.1091 44.9324 25.1628 46.066 25.1628C47.2199 25.1628 47.9762 24.1309 47.9762 22.5356Z" fill="white"/>
<path d="M57.4563 22.5356C57.4563 24.9624 56.2541 26.5215 54.4398 26.5215C53.9802 26.5475 53.5232 26.4331 53.121 26.1915C52.7187 25.9498 52.3876 25.5907 52.1656 25.1552H52.1312V29.0233H50.6479V18.63H52.0837V19.9289H52.111C52.3433 19.4955 52.68 19.1382 53.0853 18.8951C53.4905 18.652 53.9492 18.5322 54.4125 18.5483C56.2471 18.5483 57.4563 20.1151 57.4563 22.5356ZM55.9313 22.5356C55.9313 20.9541 55.175 19.9146 54.0211 19.9146C52.8875 19.9146 52.125 20.976 52.125 22.5356C52.125 24.1091 52.8875 25.1628 54.0211 25.1628C55.175 25.1628 55.9313 24.1309 55.9313 22.5356Z" fill="white"/>
<path d="M62.7146 23.4566C62.8245 24.5188 63.7796 25.2162 65.0848 25.2162C66.3353 25.2162 67.2351 24.5187 67.2351 23.561C67.2351 22.7296 66.6924 22.2318 65.4075 21.8906L64.1227 21.5558C62.3022 21.0808 61.457 20.1609 61.457 18.6683C61.457 16.8202 62.9477 15.5508 65.0645 15.5508C67.1594 15.5508 68.5955 16.8202 68.6439 18.6683H67.1462C67.0565 17.5994 66.2386 16.9541 65.0434 16.9541C63.8482 16.9541 63.0303 17.6069 63.0303 18.5571C63.0303 19.3144 63.5527 19.76 64.8306 20.1011L65.9229 20.3909C67.957 20.9106 68.8022 21.7938 68.8022 23.3605C68.8022 25.3645 67.3247 26.6195 64.9748 26.6195C62.7762 26.6195 61.2917 25.3939 61.1958 23.4565L62.7146 23.4566Z" fill="white"/>
<path d="M72.0049 16.7852V18.6333H73.3794V19.9027H72.0049V24.2083C72.0049 24.8771 72.2801 25.1888 72.8843 25.1888C73.0475 25.1857 73.2104 25.1733 73.3724 25.1517V26.4135C73.1007 26.4683 72.8246 26.4932 72.5483 26.4876C71.0849 26.4876 70.5141 25.8938 70.5141 24.3792V19.9027H69.4631V18.6333H70.5141V16.7852H72.0049Z" fill="white"/>
<path d="M74.1748 22.5406C74.1748 20.0831 75.5143 18.5391 77.603 18.5391C79.6987 18.5391 81.0319 20.083 81.0319 22.5406C81.0319 25.0045 79.7057 26.5417 77.603 26.5417C75.501 26.5417 74.1748 25.0044 74.1748 22.5406ZM79.5202 22.5406C79.5202 20.8547 78.8052 19.8599 77.603 19.8599C76.4007 19.8599 75.6866 20.8622 75.6866 22.5406C75.6866 24.2329 76.4007 25.2201 77.603 25.2201C78.8052 25.2201 79.5202 24.2329 79.5202 22.5406Z" fill="white"/>
<path d="M82.2551 18.63H83.6702V19.9592H83.7045C83.8003 19.544 84.0254 19.1771 84.342 18.9202C84.6586 18.6633 85.0475 18.5319 85.4432 18.5482C85.6142 18.5476 85.7847 18.5676 85.9515 18.608V20.1074C85.7357 20.0361 85.5105 20.0034 85.2849 20.0105C85.0693 20.0011 84.8544 20.0422 84.6549 20.1309C84.4554 20.2197 84.2761 20.3541 84.1292 20.5248C83.9823 20.6956 83.8714 20.8986 83.804 21.1201C83.7366 21.3415 83.7144 21.5761 83.7388 21.8077V26.4397H82.2551L82.2551 18.63Z" fill="white"/>
<path d="M92.7913 24.1512C92.5917 25.5688 91.3138 26.5417 89.6789 26.5417C87.5761 26.5417 86.271 25.0196 86.271 22.5777C86.271 20.1277 87.5832 18.5391 89.6165 18.5391C91.6163 18.5391 92.8739 20.0233 92.8739 22.3915V22.9407H87.7687V23.0376C87.7452 23.325 87.7785 23.6145 87.8664 23.887C87.9544 24.1594 88.095 24.4085 88.2789 24.6177C88.4628 24.8269 88.6858 24.9914 88.9331 25.1004C89.1804 25.2093 89.4463 25.2602 89.7132 25.2496C90.0638 25.2851 90.4157 25.1973 90.7164 24.9994C91.0172 24.8015 91.2508 24.504 91.3825 24.1512L92.7913 24.1512ZM87.7757 21.8204H91.3895C91.4028 21.5619 91.3666 21.3033 91.283 21.0607C91.1995 20.8181 91.0704 20.5968 90.9039 20.4106C90.7375 20.2245 90.5372 20.0775 90.3156 19.9789C90.0941 19.8804 89.8561 19.8324 89.6165 19.8379C89.3749 19.8364 89.1354 19.8866 88.9118 19.9856C88.6882 20.0846 88.4849 20.2304 88.3138 20.4148C88.1426 20.5991 88.007 20.8182 87.9146 21.0594C87.8223 21.3007 87.7751 21.5593 87.7757 21.8204Z" fill="white"/>
</svg>
