<svg width="41" height="41" viewBox="0 0 41 41" fill="none" xmlns="http://www.w3.org/2000/svg">
<path fill-rule="evenodd" clip-rule="evenodd" d="M0 35.0279H4.91146V2.16252C4.91146 1.87557 5.14836 1.63867 5.4353 1.63867H22.0715C22.3585 1.63867 22.5954 1.87557 22.5954 2.16252V14.4845H37.3164C37.6034 14.4845 37.8403 14.7214 37.8403 15.0084V35.0246H41V39.3588H0V35.0279ZM9.11556 6.5835H12.5189C12.6223 6.5835 12.7091 6.67025 12.7091 6.77368V10.8977C12.7091 11.0011 12.6223 11.0879 12.5189 11.0879H9.11556C9.01213 11.0879 8.92537 11.0011 8.92537 10.8977V6.77368C8.92537 6.67025 9.01213 6.5835 9.11556 6.5835ZM14.8812 27.0968H18.2845C18.3879 27.0968 18.4747 27.1836 18.4747 27.287V31.4111C18.4747 31.5145 18.3879 31.6012 18.2845 31.6012H14.8812C14.7778 31.6012 14.691 31.5145 14.691 31.4111V27.287C14.691 27.1803 14.7778 27.0968 14.8812 27.0968ZM9.11556 27.0968H12.5189C12.6223 27.0968 12.7091 27.1836 12.7091 27.287V31.4111C12.7091 31.5145 12.6223 31.6012 12.5189 31.6012H9.11556C9.01213 31.6012 8.92537 31.5145 8.92537 31.4111V27.287C8.92537 27.1803 9.01213 27.0968 9.11556 27.0968ZM14.8812 20.2568H18.2845C18.3879 20.2568 18.4747 20.3436 18.4747 20.447V24.571C18.4747 24.6745 18.3879 24.7612 18.2845 24.7612H14.8812C14.7778 24.7612 14.691 24.6745 14.691 24.571V20.4504C14.691 20.3436 14.7778 20.2568 14.8812 20.2568ZM9.11556 20.2568H12.5189C12.6223 20.2568 12.7091 20.3436 12.7091 20.447V24.571C12.7091 24.6745 12.6223 24.7612 12.5189 24.7612H9.11556C9.01213 24.7612 8.92537 24.6745 8.92537 24.571V20.4504C8.92537 20.3436 9.01213 20.2568 9.11556 20.2568ZM14.8812 13.4202H18.2845C18.3879 13.4202 18.4747 13.5069 18.4747 13.6104V17.7344C18.4747 17.8378 18.3879 17.9246 18.2845 17.9246H14.8812C14.7778 17.9246 14.691 17.8378 14.691 17.7344V13.6104C14.691 13.5069 14.7778 13.4202 14.8812 13.4202ZM9.11556 13.4202H12.5189C12.6223 13.4202 12.7091 13.5069 12.7091 13.6104V17.7344C12.7091 17.8378 12.6223 17.9246 12.5189 17.9246H9.11556C9.01213 17.9246 8.92537 17.8378 8.92537 17.7344V13.6104C8.92537 13.5069 9.01213 13.4202 9.11556 13.4202ZM14.8812 6.5835H18.2845C18.3879 6.5835 18.4747 6.67025 18.4747 6.77368V10.8977C18.4747 11.0011 18.3879 11.0879 18.2845 11.0879H14.8812C14.7778 11.0879 14.691 11.0011 14.691 10.8977V6.77368C14.691 6.67025 14.7778 6.5835 14.8812 6.5835ZM7.73088 4.08105H19.7159C19.9228 4.08105 20.0929 4.28459 20.0929 4.53149V33.1828C20.0929 33.4297 19.9228 33.6332 19.7159 33.6332H7.73088C7.52401 33.6332 7.35384 33.4297 7.35384 33.1828V4.53149C7.35384 4.28459 7.52401 4.08105 7.73088 4.08105ZM24.227 19.4661H27.6303C27.7337 19.4661 27.8205 19.5528 27.8205 19.6562V23.7803C27.8205 23.8837 27.7337 23.9705 27.6303 23.9705H24.227C24.1235 23.9705 24.0368 23.8837 24.0368 23.7803V19.6562C24.0368 19.5528 24.1235 19.4661 24.227 19.4661ZM29.9926 27.0968H33.3959C33.4993 27.0968 33.5861 27.1836 33.5861 27.287V31.4111C33.5861 31.5145 33.4993 31.6012 33.3959 31.6012H29.9926C29.8892 31.6012 29.8024 31.5145 29.8024 31.4111V27.287C29.8024 27.1803 29.8892 27.0968 29.9926 27.0968ZM24.227 27.0968H27.6303C27.7337 27.0968 27.8205 27.1836 27.8205 27.287V31.4111C27.8205 31.5145 27.7337 31.6012 27.6303 31.6012H24.227C24.1235 31.6012 24.0368 31.5145 24.0368 31.4111V27.287C24.0368 27.1803 24.1235 27.0968 24.227 27.0968ZM29.9926 19.4661H33.3959C33.4993 19.4661 33.5861 19.5528 33.5861 19.6562V23.7803C33.5861 23.8837 33.4993 23.9705 33.3959 23.9705H29.9926C29.8892 23.9705 29.8024 23.8837 29.8024 23.7803V19.6562C29.8024 19.5528 29.8892 19.4661 29.9926 19.4661ZM22.9757 16.9269H34.9608C35.1676 16.9269 35.3378 17.1305 35.3378 17.3774V33.1828C35.3378 33.4297 35.1676 33.6332 34.9608 33.6332H22.9757C22.7689 33.6332 22.5987 33.4297 22.5987 33.1828V17.3774C22.5987 17.1305 22.7689 16.9269 22.9757 16.9269Z" fill="#005275"/>
</svg>
