<svg width="55" height="55" viewBox="0 0 55 55" fill="none" xmlns="http://www.w3.org/2000/svg">
<g clip-path="url(#clip0_1895_733)">
<path d="M54.338 19.3814L29.9992 8.17796C29.2097 7.81434 28.3688 7.63086 27.5 7.63086C26.6312 7.63086 25.7905 7.81434 25.0008 8.17796L0.662041 19.3814C0.259746 19.5674 0 19.9727 0 20.4156C0 20.8585 0.259746 21.2638 0.662041 21.4497L25.0008 32.6532C25.7903 33.0168 26.6312 33.2011 27.5 33.2011C28.3688 33.2011 29.2097 33.0168 29.9994 32.6532L49.2077 23.8117V32.7149C48.4454 32.8009 47.851 33.4497 47.851 34.2337C47.851 34.9168 48.303 35.5081 48.9473 35.6965L47.6484 44.2678H53.6292L52.3305 35.6965C52.9746 35.5081 53.4266 34.9168 53.4266 34.2337C53.4266 33.4497 52.8321 32.8009 52.0699 32.7149V22.494L54.3382 21.4497C54.7404 21.2638 55.0002 20.8585 55.0002 20.4156C55.0002 19.9727 54.7403 19.5674 54.338 19.3814Z" fill="#005275"/>
<path d="M27.5 37.2571C26.292 37.2571 25.1214 37.0003 24.0211 36.494L12.1165 31.0137V41.9318C12.1165 44.3288 19.3595 47.3696 27.5 47.3696C35.6407 47.3696 42.8838 44.3287 42.8838 41.9318V31.0137L30.9786 36.494C29.8789 37.0003 28.7085 37.2571 27.5 37.2571Z" fill="#005275"/>
</g>
<defs>
<clipPath id="clip0_1895_733">
<rect width="55" height="55" fill="white"/>
</clipPath>
</defs>
</svg>
