<svg width="16" height="16" viewBox="0 0 16 16" fill="none" xmlns="http://www.w3.org/2000/svg">
<g clip-path="url(#clip0_2213_148)">
<path opacity="0.983" fill-rule="evenodd" clip-rule="evenodd" d="M2.60938 0.171875C6.20312 0.166667 9.79688 0.171875 13.3906 0.1875C14.7255 0.428631 15.5224 1.21509 15.7812 2.54688C15.8021 6.17188 15.8021 9.79688 15.7812 13.4219C15.5224 14.7537 14.7255 15.5401 13.3906 15.7812C9.79688 15.8021 6.20312 15.8021 2.60938 15.7812C1.56082 15.6283 0.816022 15.0711 0.375 14.1094C0.28066 13.8784 0.21816 13.6388 0.1875 13.3906C0.166667 9.78647 0.166667 6.18228 0.1875 2.57812C0.354838 1.54639 0.912131 0.812019 1.85938 0.375C2.10566 0.277075 2.35566 0.209367 2.60938 0.171875ZM2.79688 1.39062C6.25522 1.38542 9.71356 1.39062 13.1719 1.40625C13.7798 1.48379 14.2122 1.80149 14.4688 2.35938C14.5098 2.48189 14.541 2.60689 14.5625 2.73438C14.5833 6.23438 14.5833 9.73438 14.5625 13.2344C14.4323 13.9896 13.9896 14.4323 13.2344 14.5625C9.73438 14.5833 6.23438 14.5833 2.73438 14.5625C2.11473 14.4533 1.69286 14.1044 1.46875 13.5156C1.43922 13.4027 1.41839 13.2881 1.40625 13.1719C1.38542 9.71353 1.38542 6.25522 1.40625 2.79688C1.54206 1.99963 2.0056 1.53088 2.79688 1.39062Z" fill="#005275"/>
<path opacity="0.986" fill-rule="evenodd" clip-rule="evenodd" d="M5.14057 4.60971C5.33842 4.60446 5.51551 4.66174 5.67182 4.78158C6.43789 5.55286 7.2087 6.31849 7.98432 7.07846C8.75995 6.31849 9.53076 5.55286 10.2968 4.78158C10.6167 4.54408 10.924 4.55971 11.2187 4.82846C11.4118 5.11764 11.4014 5.39889 11.1874 5.67221C10.4162 6.43827 9.65054 7.20908 8.89057 7.98471C9.65054 8.76033 10.4162 9.53114 11.1874 10.2972C11.4249 10.6171 11.4093 10.9244 11.1406 11.2191C10.8526 11.4125 10.5714 11.4021 10.2968 11.1878C9.53076 10.4165 8.75995 9.65092 7.98432 8.89096C7.2087 9.65092 6.43789 10.4165 5.67182 11.1878C5.35073 11.425 5.04345 11.4094 4.74995 11.141C4.55686 10.8518 4.56729 10.5705 4.7812 10.2972C5.55248 9.53114 6.31811 8.76033 7.07807 7.98471C6.28595 7.18739 5.49951 6.3853 4.7187 5.57846C4.55626 5.27692 4.59273 5.00089 4.82807 4.75033C4.93167 4.69314 5.03586 4.64627 5.14057 4.60971Z" fill="#005275"/>
</g>
<defs>
<clipPath id="clip0_2213_148">
<rect width="16" height="16" fill="white"/>
</clipPath>
</defs>
</svg>
