<svg width="20" height="20" viewBox="0 0 20 20" fill="none" xmlns="http://www.w3.org/2000/svg">
<g clip-path="url(#clip0_1408_1419)">
<path d="M15.5465 0.774735L5.38652 10.9347C4.99847 11.3207 4.69084 11.7798 4.48142 12.2854C4.27201 12.7911 4.16498 13.3333 4.16652 13.8806V14.9997C4.16652 15.2207 4.25432 15.4327 4.4106 15.589C4.56688 15.7453 4.77884 15.8331 4.99985 15.8331H6.11902C6.66632 15.8346 7.2085 15.7276 7.71415 15.5182C8.21981 15.3088 8.6789 15.0011 9.06485 14.6131L19.2249 4.45307C19.7118 3.96488 19.9853 3.30346 19.9853 2.6139C19.9853 1.92434 19.7118 1.26293 19.2249 0.774735C18.7296 0.301313 18.0708 0.0371094 17.3857 0.0371094C16.7005 0.0371094 16.0418 0.301313 15.5465 0.774735ZM18.0465 3.27473L7.88652 13.4347C7.41662 13.9018 6.78153 14.1647 6.11902 14.1664H5.83319V13.8806C5.83492 13.2181 6.09783 12.583 6.56485 12.1131L16.7249 1.95307C16.9028 1.78303 17.1395 1.68815 17.3857 1.68815C17.6318 1.68815 17.8685 1.78303 18.0465 1.95307C18.2215 2.1285 18.3197 2.36614 18.3197 2.6139C18.3197 2.86166 18.2215 3.09931 18.0465 3.27473Z" fill="#4B4B4B"/>
<path d="M19.1667 7.4825C18.9457 7.4825 18.7337 7.5703 18.5774 7.72658C18.4211 7.88286 18.3333 8.09482 18.3333 8.31583V12.5H15C14.337 12.5 13.7011 12.7634 13.2322 13.2322C12.7634 13.7011 12.5 14.337 12.5 15V18.3333H4.16667C3.50363 18.3333 2.86774 18.0699 2.3989 17.6011C1.93006 17.1323 1.66667 16.4964 1.66667 15.8333V4.16667C1.66667 3.50363 1.93006 2.86774 2.3989 2.3989C2.86774 1.93006 3.50363 1.66667 4.16667 1.66667H11.7017C11.9227 1.66667 12.1346 1.57887 12.2909 1.42259C12.4472 1.26631 12.535 1.05435 12.535 0.833333C12.535 0.61232 12.4472 0.400358 12.2909 0.244078C12.1346 0.0877974 11.9227 0 11.7017 0L4.16667 0C3.062 0.00132321 2.00297 0.440735 1.22185 1.22185C0.440735 2.00296 0.00132321 3.062 0 4.16667L0 15.8333C0.00132321 16.938 0.440735 17.997 1.22185 18.7782C2.00297 19.5593 3.062 19.9987 4.16667 20H13.6192C14.1666 20.0016 14.7089 19.8945 15.2147 19.6851C15.7205 19.4757 16.1797 19.1681 16.5658 18.78L18.7792 16.565C19.1673 16.1791 19.475 15.72 19.6846 15.2143C19.8941 14.7087 20.0013 14.1665 20 13.6192V8.31583C20 8.09482 19.9122 7.88286 19.7559 7.72658C19.5996 7.5703 19.3877 7.4825 19.1667 7.4825ZM15.3875 17.6017C15.0525 17.9358 14.6289 18.1672 14.1667 18.2683V15C14.1667 14.779 14.2545 14.567 14.4107 14.4107C14.567 14.2545 14.779 14.1667 15 14.1667H18.2708C18.1677 14.6279 17.9367 15.0508 17.6042 15.3867L15.3875 17.6017Z" fill="#4B4B4B"/>
</g>
<defs>
<clipPath id="clip0_1408_1419">
<rect width="20" height="20" fill="white"/>
</clipPath>
</defs>
</svg>
