<svg width="40" height="41" viewBox="0 0 40 41" fill="none" xmlns="http://www.w3.org/2000/svg">
<path opacity="0.989" fill-rule="evenodd" clip-rule="evenodd" d="M10.8203 4.03618C15.4558 4.02303 20.0913 4.03618 24.7266 4.07564C25.7345 4.28204 26.5939 4.75548 27.3047 5.49595C28.8517 6.92688 30.3752 8.38668 31.875 9.87525C32.3572 10.5604 32.6436 11.3232 32.7344 12.1635C32.7865 18.8968 32.7865 25.6302 32.7344 32.3635C32.4238 34.5301 31.2128 35.8584 29.1016 36.3483C23.0078 36.4009 16.9141 36.4009 10.8203 36.3483C8.70906 35.8584 7.49816 34.5301 7.1875 32.3635C7.13542 24.2625 7.13542 16.1615 7.1875 8.0604C7.49241 5.87232 8.70336 4.53092 10.8203 4.03618ZM19.7266 11.2956C20.0923 11.2828 20.4309 11.3749 20.7422 11.5717C21.9531 12.7948 23.1641 14.0178 24.375 15.2409C24.8898 16.1795 24.6685 16.8765 23.7109 17.3319C23.3538 17.4019 23.0152 17.3492 22.6953 17.1741C22.2645 16.7257 21.8218 16.2917 21.3672 15.8721C21.3021 17.5022 21.263 19.1329 21.25 20.7643C21.107 21.4741 20.6773 21.8687 19.9609 21.9479C19.3836 21.9001 18.9799 21.6108 18.75 21.0799C18.737 19.3434 18.6979 17.6074 18.6328 15.8721C18.2303 16.2392 17.8397 16.6205 17.4609 17.0163C16.6522 17.5744 15.9621 17.4561 15.3906 16.6612C15.2027 16.1604 15.2548 15.687 15.5469 15.2409C16.7578 14.0178 17.9688 12.7948 19.1797 11.5717C19.3691 11.476 19.5515 11.384 19.7266 11.2956ZM14.4141 26.5245C18.1121 26.5113 21.81 26.5245 25.5078 26.5639C26.562 27.1669 26.6923 27.9297 25.8984 28.8522C25.7252 28.9528 25.5429 29.0317 25.3516 29.0889C21.7578 29.1415 18.1641 29.1415 14.5703 29.0889C13.6259 28.7461 13.3263 28.1018 13.6719 27.1557C13.8855 26.8978 14.1329 26.6873 14.4141 26.5245Z" fill="#3DA1CC"/>
</svg>
