<svg width="113" height="51" viewBox="0 0 113 51" fill="none" xmlns="http://www.w3.org/2000/svg">
<path d="M102.065 42.4061H10.9357C8.8944 42.4061 7.29053 40.5626 7.29053 38.2164V13.0784C7.29053 10.7321 8.8944 8.88867 10.9357 8.88867H102.065C104.106 8.88867 105.71 10.7321 105.71 13.0784V38.2164C105.71 40.4789 104.106 42.4061 102.065 42.4061Z" fill="black"/>
<path d="M102.065 9.56488C103.741 9.56488 105.127 11.157 105.127 13.0842V38.2223C105.127 40.1495 103.741 41.7416 102.065 41.7416H10.9357C9.25891 41.7416 7.87375 40.1495 7.87375 38.2223V13.0842C7.87375 11.157 9.25891 9.56488 10.9357 9.56488H102.065ZM102.065 8.89453H10.9357C8.8944 8.89453 7.29053 10.738 7.29053 13.0842V38.2223C7.29053 40.5685 8.8944 42.412 10.9357 42.412H102.065C104.106 42.412 105.71 40.5685 105.71 38.2223V13.0842C105.71 10.8218 104.106 8.89453 102.065 8.89453Z" fill="#A7A6A6"/>
<path d="M56.9375 27.1668C55.1879 27.1668 53.8027 28.6751 53.8027 30.7699C53.8027 32.781 55.1879 34.3731 56.9375 34.3731C58.6872 34.3731 60.0724 32.8648 60.0724 30.7699C60.0724 28.5913 58.6872 27.1668 56.9375 27.1668ZM56.9375 32.8648C55.9898 32.8648 55.1879 31.9431 55.1879 30.6862C55.1879 29.4292 55.9898 28.5075 56.9375 28.5075C57.8853 28.5075 58.6872 29.3455 58.6872 30.6862C58.6872 31.9431 57.8853 32.8648 56.9375 32.8648ZM50.1575 27.1668C48.4079 27.1668 47.0227 28.6751 47.0227 30.7699C47.0227 32.781 48.4079 34.3731 50.1575 34.3731C51.9072 34.3731 53.2924 32.8648 53.2924 30.7699C53.2924 28.5913 51.9072 27.1668 50.1575 27.1668ZM50.1575 32.8648C49.2098 32.8648 48.4079 31.9431 48.4079 30.6862C48.4079 29.4292 49.2098 28.5075 50.1575 28.5075C51.1053 28.5075 51.9072 29.3455 51.9072 30.6862C51.9072 31.9431 51.1053 32.8648 50.1575 32.8648ZM42.0653 28.2561V29.7644H45.2001C45.1272 30.6024 44.8356 31.2727 44.4711 31.6917C44.0337 32.1944 43.3046 32.781 42.0653 32.781C40.0969 32.781 38.6388 31.0213 38.6388 28.7589C38.6388 26.4965 40.1698 24.7368 42.0653 24.7368C43.0859 24.7368 43.8879 25.2396 44.4711 25.8261L45.4188 24.7368C44.6169 23.8989 43.5962 23.2285 42.1382 23.2285C39.5137 23.2285 37.2537 25.7423 37.2537 28.7589C37.2537 31.7755 39.5137 34.2893 42.1382 34.2893C43.5962 34.2893 44.6169 33.7865 45.4917 32.6972C46.3666 31.6917 46.6582 30.2672 46.6582 29.1779C46.6582 28.8427 46.6582 28.5075 46.5853 28.2561H42.0653ZM75.1633 29.4292C74.8717 28.5913 74.1427 27.1668 72.5388 27.1668C70.935 27.1668 69.6227 28.5913 69.6227 30.7699C69.6227 32.781 70.935 34.3731 72.6846 34.3731C74.0698 34.3731 74.9446 33.3676 75.2362 32.781L74.2156 31.9431C73.8511 32.5296 73.4137 32.9486 72.6846 32.9486C71.9556 32.9486 71.5182 32.6134 71.1537 31.8593L75.3092 29.8482L75.1633 29.4292ZM70.935 30.6024C70.935 29.2617 71.8827 28.5075 72.5388 28.5075C73.0491 28.5075 73.5595 28.8427 73.7053 29.2617L70.935 30.6024ZM67.5085 34.0379H68.8937V23.5637H67.5085V34.0379ZM65.3214 27.921C64.9569 27.502 64.3737 27.083 63.6446 27.083C62.1137 27.083 60.6556 28.6751 60.6556 30.6862C60.6556 32.6972 62.0408 34.2055 63.6446 34.2055C64.3737 34.2055 64.9569 33.7865 65.2485 33.3675H65.3214V33.8703C65.3214 35.211 64.6653 35.9652 63.6446 35.9652C62.8427 35.9652 62.2595 35.2948 62.1137 34.7083L60.9472 35.2948C61.3117 36.2165 62.1866 37.3896 63.7175 37.3896C65.3214 37.3896 66.6337 36.3003 66.6337 33.7027V27.3344H65.3214V27.921ZM63.7175 32.8648C62.7698 32.8648 61.9679 31.9431 61.9679 30.6862C61.9679 29.4292 62.7698 28.5075 63.7175 28.5075C64.6653 28.5075 65.3943 29.4292 65.3943 30.6862C65.3943 31.9431 64.6653 32.8648 63.7175 32.8648ZM81.5059 23.5637H78.2253V34.0379H79.6104V30.0996H81.5059C83.0369 30.0996 84.4949 28.8427 84.4949 26.8316C84.4949 24.8206 83.0369 23.5637 81.5059 23.5637ZM81.5788 28.5913H79.6104V24.9882H81.5788C82.5995 24.9882 83.1827 25.9937 83.1827 26.7479C83.1098 27.6696 82.5266 28.5913 81.5788 28.5913ZM89.9627 27.083C88.942 27.083 87.9214 27.5858 87.5569 28.6751L88.7962 29.2617C89.0879 28.6751 89.5253 28.5075 90.0356 28.5075C90.7646 28.5075 91.4208 29.0103 91.4937 29.8482V29.932C91.275 29.7644 90.6917 29.513 90.1085 29.513C88.7962 29.513 87.484 30.351 87.484 31.8593C87.484 33.2838 88.5775 34.2055 89.744 34.2055C90.6917 34.2055 91.1292 33.7027 91.4937 33.2H91.5666V34.0379H92.8788V30.0158C92.733 28.1723 91.4937 27.083 89.9627 27.083ZM89.8169 32.8648C89.3795 32.8648 88.7233 32.6134 88.7233 31.9431C88.7233 31.1051 89.5253 30.8537 90.1814 30.8537C90.7646 30.8537 91.0562 31.0213 91.4208 31.1889C91.275 32.1944 90.5459 32.8648 89.8169 32.8648ZM97.4717 27.3344L95.9408 31.8593H95.8679L94.264 27.3344H92.8059L95.2117 33.7027L93.8266 37.2221H95.2117L98.9298 27.3344H97.4717ZM85.224 34.0379H86.6091V23.5637H85.224V34.0379Z" fill="white"/>
<path d="M14.8727 15.1699C14.654 15.5051 14.5811 15.8403 14.5811 16.4268V34.8614C14.5811 35.3642 14.7269 35.7832 14.9456 36.0346L15.0185 36.1183L24.0585 25.7279V25.6441V25.5603L14.8727 15.1699Z" fill="#5BC9F4"/>
<path d="M26.9746 29.2436L23.9856 25.808V25.6404V25.5566L26.9746 22.1211L27.0475 22.2049L30.6198 24.5511C31.6404 25.2215 31.6404 26.3108 30.6198 26.9811L26.9746 29.2436Z" fill="url(#paint0_linear_1903_1065)"/>
<path d="M27.0474 29.1619L23.9855 25.6426L14.8726 36.1168C15.2371 36.5357 15.7474 36.5357 16.4035 36.2006L27.0474 29.1619Z" fill="url(#paint1_linear_1903_1065)"/>
<path d="M27.0474 22.1229L16.4035 15.168C15.7474 14.7491 15.2371 14.8329 14.8726 15.2518L23.9855 25.6422L27.0474 22.1229Z" fill="url(#paint2_linear_1903_1065)"/>
<path d="M37.3994 19.7913V14.7637H38.7117C39.3678 14.7637 39.951 15.0151 40.3155 15.434C40.753 15.9368 40.8988 16.5233 40.8988 17.2775C40.8988 18.0316 40.6801 18.6182 40.3155 19.1209C39.951 19.5399 39.3678 19.7913 38.7117 19.7913H37.3994ZM37.9097 19.2047H38.7117C39.222 19.2047 39.5865 19.0371 39.8781 18.702C40.1697 18.3668 40.3155 17.864 40.3155 17.2775C40.3155 16.6909 40.1697 16.1882 39.8781 15.853C39.5865 15.5178 39.1491 15.3502 38.7117 15.3502H37.9097V19.2047Z" fill="white" stroke="white" stroke-width="0.2" stroke-miterlimit="10"/>
<path d="M41.7007 19.7913V14.7637H42.2839V19.7913H41.7007Z" fill="white" stroke="white" stroke-width="0.2" stroke-miterlimit="10"/>
<path d="M44.5437 19.8767C44.252 19.8767 43.8875 19.7929 43.5959 19.5415C43.3043 19.2901 43.0856 18.9549 43.0127 18.536L43.523 18.2846C43.5959 18.536 43.7417 18.7873 43.8875 18.9549C44.1062 19.1225 44.325 19.2063 44.5437 19.2063C44.7624 19.2063 44.9811 19.1225 45.1998 18.9549C45.3456 18.7873 45.4914 18.6198 45.4914 18.3684C45.4914 18.117 45.4185 17.8656 45.1998 17.698C45.054 17.5304 44.7624 17.3628 44.3979 17.2791C44.0333 17.1115 43.7417 16.9439 43.523 16.7763C43.3043 16.5249 43.2314 16.2735 43.2314 15.9384C43.2314 15.6032 43.3772 15.268 43.5959 15.0166C43.8146 14.7652 44.1791 14.5977 44.5437 14.5977C44.9082 14.5977 45.1998 14.6815 45.4185 14.9328C45.6372 15.1842 45.783 15.3518 45.8559 15.6032L45.3456 15.8546C45.2727 15.687 45.1998 15.5194 45.054 15.4356C44.9082 15.268 44.6895 15.268 44.4708 15.268C44.2521 15.268 44.1062 15.3518 43.8875 15.4356C43.8146 15.6032 43.7417 15.7708 43.7417 16.0221C43.7417 16.1897 43.8146 16.3573 43.9604 16.5249C44.1062 16.6925 44.325 16.7763 44.6166 16.8601C44.8353 16.9439 44.9811 17.0277 45.1269 17.1115C45.2727 17.1953 45.4185 17.2791 45.5643 17.4466C45.7101 17.5304 45.8559 17.698 45.9288 17.9494C46.0017 18.2008 46.0746 18.3684 46.0746 18.6198C46.0746 18.8711 46.0017 19.1225 45.9288 19.2901C45.8559 19.4577 45.7101 19.6253 45.5643 19.7091C45.3456 19.7091 45.1998 19.7929 45.054 19.7929C44.8353 19.8767 44.6895 19.8767 44.5437 19.8767Z" fill="white" stroke="white" stroke-width="0.2" stroke-miterlimit="10"/>
<path d="M47.3872 19.7913H46.804V14.7637H48.262C48.6265 14.7637 48.9182 14.9313 49.2098 15.1826C49.5014 15.434 49.6472 15.853 49.6472 16.272C49.6472 16.6909 49.5014 17.0261 49.2098 17.3613C48.9182 17.6127 48.6265 17.7802 48.262 17.7802H47.3872V19.7913ZM47.3872 17.1099H48.3349C48.5536 17.1099 48.7723 17.0261 48.9181 16.8585C49.064 16.6909 49.1369 16.4395 49.1369 16.272C49.1369 16.0206 49.064 15.853 48.9181 15.6854C48.7723 15.5178 48.5536 15.434 48.3349 15.434H47.3872V17.1099Z" fill="white" stroke="white" stroke-width="0.2" stroke-miterlimit="10"/>
<path d="M53.9483 19.1247C53.5109 19.6274 53.0006 19.8788 52.3445 19.8788C51.6883 19.8788 51.178 19.6274 50.7406 19.1247C50.3032 18.6219 50.0845 18.0353 50.0845 17.2812C50.0845 16.5271 50.3032 15.9405 50.7406 15.4377C51.178 14.935 51.6883 14.6836 52.3445 14.6836C53.0006 14.6836 53.5109 14.935 53.9483 15.4377C54.3858 15.9405 54.6045 16.5271 54.6045 17.2812C54.6045 18.0353 54.3858 18.6219 53.9483 19.1247ZM51.178 18.7057C51.4696 19.0409 51.9071 19.2922 52.3445 19.2922C52.7819 19.2922 53.2193 19.1247 53.5109 18.7057C53.8025 18.3705 54.0212 17.8677 54.0212 17.2812C54.0212 16.6946 53.8754 16.1919 53.5109 15.8567C53.2193 15.5215 52.7819 15.2701 52.3445 15.2701C51.9071 15.2701 51.4696 15.4377 51.178 15.8567C50.8864 16.1919 50.6677 16.6946 50.6677 17.2812C50.6677 17.8677 50.8135 18.3705 51.178 18.7057Z" fill="white" stroke="white" stroke-width="0.2" stroke-miterlimit="10"/>
<path d="M55.3335 19.7913V14.7637H55.9896L58.1038 18.702V17.6965V14.7637H58.687V19.7913H58.1038L55.8438 15.6854V16.6909V19.7913H55.3335Z" fill="white" stroke="white" stroke-width="0.2" stroke-miterlimit="10"/>
<path d="M59.708 19.7913V14.7637H60.2912V19.7913H59.708Z" fill="white" stroke="white" stroke-width="0.2" stroke-miterlimit="10"/>
<path d="M61.3118 19.7913V14.7637H62.9156C63.2802 14.7637 63.5718 14.9313 63.7905 15.1826C64.0092 15.434 64.155 15.7692 64.155 16.1882C64.155 16.4395 64.0821 16.6071 64.0092 16.8585C63.9363 17.0261 63.7905 17.1937 63.5718 17.2775C63.7905 17.3613 63.9363 17.5289 64.0821 17.6964C64.2279 17.864 64.3008 18.1154 64.3008 18.4506C64.3008 18.8696 64.155 19.2047 63.9363 19.4561C63.6447 19.7075 63.3531 19.8751 62.9885 19.8751H61.3118V19.7913ZM61.895 16.9423H62.9156C63.1344 16.9423 63.2802 16.8585 63.426 16.6909C63.5718 16.5233 63.6447 16.3558 63.6447 16.1882C63.6447 16.0206 63.5718 15.853 63.426 15.6854C63.2802 15.5178 63.1344 15.434 62.9156 15.434H61.895V16.9423ZM61.895 19.2047H63.0614C63.2802 19.2047 63.426 19.1209 63.5718 18.9534C63.7176 18.7858 63.7905 18.6182 63.7905 18.3668C63.7905 18.1992 63.7176 17.9478 63.5718 17.7802C63.426 17.6127 63.2802 17.5289 63.0614 17.5289H61.9679V19.2047H61.895Z" fill="white" stroke="white" stroke-width="0.2" stroke-miterlimit="10"/>
<path d="M65.0298 19.7913V14.7637H65.613V19.2047H67.5085V19.7913H65.0298Z" fill="white" stroke="white" stroke-width="0.2" stroke-miterlimit="10"/>
<path d="M70.7894 15.3502H68.821V16.9423H70.6436V17.5289H68.821V19.1209H70.7894V19.7913H68.2378V14.7637H70.7894V15.3502Z" fill="white" stroke="white" stroke-width="0.2" stroke-miterlimit="10"/>
<path d="M74.1428 19.8767C73.8512 19.8767 73.4867 19.7929 73.195 19.5415C72.9034 19.2901 72.6847 18.9549 72.6118 18.536L73.1221 18.2846C73.195 18.536 73.3409 18.7873 73.4867 18.9549C73.7054 19.1225 73.9241 19.2063 74.1428 19.2063C74.3615 19.2063 74.5802 19.1225 74.7989 18.9549C74.9447 18.7873 75.0905 18.6198 75.0905 18.3684C75.0905 18.117 75.0176 17.8656 74.7989 17.698C74.6531 17.5304 74.3615 17.3628 73.997 17.2791C73.6325 17.1115 73.3409 16.9439 73.1221 16.7763C72.9034 16.5249 72.8305 16.2735 72.8305 15.9384C72.8305 15.6032 72.9763 15.268 73.195 15.0166C73.4138 14.7652 73.7783 14.5977 74.1428 14.5977C74.5073 14.5977 74.7989 14.6815 75.0176 14.9328C75.2363 15.1842 75.3821 15.3518 75.455 15.6032L74.9447 15.8546C74.8718 15.687 74.7989 15.5194 74.6531 15.4356C74.5073 15.268 74.2886 15.268 74.0699 15.268C73.8512 15.268 73.7054 15.3518 73.4867 15.4356C73.3409 15.6032 73.2679 15.7708 73.2679 15.9384C73.2679 16.1059 73.3409 16.2735 73.4867 16.4411C73.6325 16.6087 73.8512 16.6925 74.1428 16.7763C74.3615 16.8601 74.5073 16.9439 74.6531 17.0277C74.7989 17.1115 74.9447 17.1953 75.0905 17.3628C75.2363 17.4466 75.3821 17.6142 75.455 17.8656C75.5279 18.0332 75.6008 18.2846 75.6008 18.536C75.6008 18.7873 75.5279 19.0387 75.455 19.2063C75.3821 19.3739 75.2363 19.5415 75.0905 19.6253C74.9447 19.7091 74.7989 19.7929 74.6531 19.8767C74.5073 19.8767 74.3615 19.8767 74.1428 19.8767Z" fill="white" stroke="white" stroke-width="0.2" stroke-miterlimit="10"/>
<path d="M77.9335 19.8751C77.4231 19.8751 77.0586 19.7075 76.767 19.2885C76.4754 18.9534 76.3296 18.4506 76.3296 17.864V14.7637H76.9128V17.9478C76.9128 18.3668 76.9857 18.702 77.2044 18.9534C77.3502 19.2047 77.6419 19.2885 78.0064 19.2885C78.3709 19.2885 78.5896 19.2047 78.8083 18.9534C78.9541 18.702 79.0999 18.3668 79.0999 17.9478V14.7637H79.6831V17.9478C79.6831 18.5344 79.5373 19.0371 79.2457 19.3723C78.8812 19.7075 78.4438 19.8751 77.9335 19.8751Z" fill="white" stroke="white" stroke-width="0.2" stroke-miterlimit="10"/>
<path d="M80.4854 19.7913V14.7637H81.9434C82.3079 14.7637 82.5995 14.9313 82.8912 15.1826C83.1828 15.434 83.3286 15.853 83.3286 16.272C83.3286 16.6071 83.2557 16.9423 83.037 17.1937C82.8182 17.4451 82.5995 17.6127 82.3079 17.6965L83.5473 19.7075H82.8912L81.7247 17.6965H81.0686V19.7913H80.4854ZM81.0686 17.1099H81.9434C82.1621 17.1099 82.3808 17.0261 82.5266 16.8585C82.6724 16.6909 82.7454 16.4395 82.7454 16.1882C82.7454 15.9368 82.6724 15.7692 82.5266 15.6016C82.3808 15.434 82.1621 15.3502 81.9434 15.3502H80.9957V17.1099H81.0686Z" fill="white" stroke="white" stroke-width="0.2" stroke-miterlimit="10"/>
<defs>
<linearGradient id="paint0_linear_1903_1065" x1="29.9555" y1="25.6407" x2="12.3298" y2="25.6407" gradientUnits="userSpaceOnUse">
<stop stop-color="#FEE000"/>
<stop offset="0.1941" stop-color="#FCCF0B"/>
<stop offset="0.5469" stop-color="#FAB318"/>
<stop offset="0.8279" stop-color="#F9A21B"/>
<stop offset="1" stop-color="#F99B1C"/>
</linearGradient>
<linearGradient id="paint1_linear_1903_1065" x1="25.3813" y1="27.564" x2="6.51021" y2="43.9825" gradientUnits="userSpaceOnUse">
<stop stop-color="#EF4547"/>
<stop offset="1" stop-color="#C6186D"/>
</linearGradient>
<linearGradient id="paint2_linear_1903_1065" x1="8.72959" y1="4.58146" x2="24.1373" y2="17.9867" gradientUnits="userSpaceOnUse">
<stop stop-color="#279E6F"/>
<stop offset="0.3168" stop-color="#4DAB6D"/>
<stop offset="0.7398" stop-color="#6ABA6A"/>
<stop offset="1" stop-color="#74C169"/>
</linearGradient>
</defs>
</svg>
