<svg width="20" height="20" viewBox="0 0 20 20" fill="none" xmlns="http://www.w3.org/2000/svg">
<g clip-path="url(#clip0_1368_117)">
<path opacity="0.977" fill-rule="evenodd" clip-rule="evenodd" d="M19.9805 6.19148C19.9805 6.37379 19.9805 6.55605 19.9805 6.73836C18.9732 9.98531 17.9771 13.2405 16.9922 16.504C16.9075 16.7449 16.7448 16.9076 16.5039 16.9923C12.155 17.0183 7.80598 17.0183 3.45703 16.9923C3.21614 16.9076 3.05339 16.7449 2.96875 16.504C1.98386 13.2405 0.987769 9.98531 -0.0195312 6.73836C-0.0195312 6.55605 -0.0195312 6.37379 -0.0195312 6.19148C0.198434 5.75715 0.549996 5.59438 1.03516 5.7032C2.47634 6.39449 3.91516 7.09109 5.35156 7.79305C6.69148 6.28359 8.01961 4.76016 9.33594 3.22273C9.58969 2.96354 9.89566 2.8789 10.2539 2.96883C10.3883 3.0382 10.512 3.12284 10.625 3.22273C11.9413 4.76016 13.2695 6.28359 14.6094 7.79305C16.0549 7.11148 17.4937 6.41488 18.9258 5.7032C19.4119 5.59488 19.7634 5.75762 19.9805 6.19148ZM9.94141 4.98055C10.0007 4.98098 10.0463 5.00699 10.0781 5.05867C11.3331 6.53504 12.6026 7.99988 13.8867 9.4532C14.1605 9.6025 14.447 9.62852 14.7461 9.53133C15.7747 9.03004 16.8034 8.52871 17.832 8.02742C17.845 8.04695 17.8581 8.06648 17.8711 8.08602C17.1168 10.5377 16.3746 12.9921 15.6445 15.4493C11.8685 15.4493 8.09246 15.4493 4.31641 15.4493C3.58633 12.9921 2.84414 10.5377 2.08984 8.08602C2.10286 8.06648 2.11589 8.04695 2.12891 8.02742C3.15755 8.52871 4.18621 9.03004 5.21484 9.53133C5.61926 9.67496 5.96434 9.59031 6.25 9.27742C7.47406 7.83859 8.70453 6.40633 9.94141 4.98055Z" fill="#005275"/>
</g>
<defs>
<clipPath id="clip0_1368_117">
<rect width="20" height="20" fill="white"/>
</clipPath>
</defs>
</svg>
