<svg width="400" height="200" viewBox="0 0 400 200" fill="none" xmlns="http://www.w3.org/2000/svg">
<path d="M0 200V173.75C0 161.806 6.11111 152.083 18.3333 144.583C30.5556 137.083 46.6667 133.333 66.6667 133.333C70.2778 133.333 73.75 133.403 77.0833 133.542C80.4167 133.681 83.6111 134.028 86.6667 134.583C82.7778 140.417 79.8611 146.528 77.9167 152.917C75.9722 159.306 75 165.972 75 172.917V200H0ZM100 200V172.917C100 164.028 102.431 155.903 107.292 148.542C112.153 141.181 119.028 134.722 127.917 129.167C136.806 123.611 147.431 119.444 159.792 116.667C172.153 113.889 185.556 112.5 200 112.5C214.722 112.5 228.264 113.889 240.625 116.667C252.986 119.444 263.611 123.611 272.5 129.167C281.389 134.722 288.194 141.181 292.917 148.542C297.639 155.903 300 164.028 300 172.917V200H100ZM325 200V172.917C325 165.694 324.097 158.889 322.292 152.5C320.486 146.111 317.778 140.139 314.167 134.583C317.222 134.028 320.347 133.681 323.542 133.542C326.736 133.403 330 133.333 333.333 133.333C353.333 133.333 369.444 137.014 381.667 144.375C393.889 151.736 400 161.528 400 173.75V200H325ZM135.417 166.667H265C262.222 161.111 254.514 156.25 241.875 152.083C229.236 147.917 215.278 145.833 200 145.833C184.722 145.833 170.764 147.917 158.125 152.083C145.486 156.25 137.917 161.111 135.417 166.667ZM66.6667 116.667C57.5 116.667 49.6528 113.403 43.125 106.875C36.5972 100.347 33.3333 92.5 33.3333 83.3333C33.3333 73.8889 36.5972 65.9722 43.125 59.5833C49.6528 53.1944 57.5 50 66.6667 50C76.1111 50 84.0278 53.1944 90.4167 59.5833C96.8055 65.9722 100 73.8889 100 83.3333C100 92.5 96.8055 100.347 90.4167 106.875C84.0278 113.403 76.1111 116.667 66.6667 116.667ZM333.333 116.667C324.167 116.667 316.319 113.403 309.792 106.875C303.264 100.347 300 92.5 300 83.3333C300 73.8889 303.264 65.9722 309.792 59.5833C316.319 53.1944 324.167 50 333.333 50C342.778 50 350.694 53.1944 357.083 59.5833C363.472 65.9722 366.667 73.8889 366.667 83.3333C366.667 92.5 363.472 100.347 357.083 106.875C350.694 113.403 342.778 116.667 333.333 116.667ZM200 100C186.111 100 174.306 95.1389 164.583 85.4167C154.861 75.6944 150 63.8889 150 50C150 35.8333 154.861 23.9583 164.583 14.375C174.306 4.79167 186.111 0 200 0C214.167 0 226.042 4.79167 235.625 14.375C245.208 23.9583 250 35.8333 250 50C250 63.8889 245.208 75.6944 235.625 85.4167C226.042 95.1389 214.167 100 200 100ZM200 66.6667C204.722 66.6667 208.681 65.0694 211.875 61.875C215.069 58.6806 216.667 54.7222 216.667 50C216.667 45.2778 215.069 41.3194 211.875 38.125C208.681 34.9306 204.722 33.3333 200 33.3333C195.278 33.3333 191.319 34.9306 188.125 38.125C184.931 41.3194 183.333 45.2778 183.333 50C183.333 54.7222 184.931 58.6806 188.125 61.875C191.319 65.0694 195.278 66.6667 200 66.6667Z" fill="#4B4B4B" fill-opacity="0.15"/>
</svg>
