<svg width="31" height="33" viewBox="0 0 31 33" fill="none" xmlns="http://www.w3.org/2000/svg">
<path d="M26.015 25.9501L21.8782 21.4025C23.2129 19.5278 23.9371 17.2127 23.9344 14.8294C23.9344 12.7068 23.3636 10.632 22.294 8.86715C21.2245 7.10233 19.7043 5.72682 17.9257 4.91456C16.1472 4.10231 14.1901 3.88978 12.3019 4.30387C10.4138 4.71795 8.67945 5.74005 7.31819 7.24091C5.95692 8.74176 5.02989 10.654 4.65432 12.7357C4.27875 14.8175 4.4715 16.9753 5.20821 18.9362C5.94492 20.8972 7.1925 22.5732 8.79318 23.7525C10.3939 24.9317 12.2757 25.5611 14.2009 25.5611C16.3625 25.564 18.4623 24.7656 20.1627 23.294L24.2873 27.855C24.4004 27.9807 24.5349 28.0805 24.6832 28.1486C24.8315 28.2167 24.9905 28.2518 25.1511 28.2518C25.3117 28.2518 25.4708 28.2167 25.619 28.1486C25.7673 28.0805 25.9019 27.9807 26.015 27.855C26.129 27.7303 26.2195 27.5819 26.2813 27.4184C26.3431 27.255 26.3749 27.0796 26.3749 26.9025C26.3749 26.7255 26.3431 26.5501 26.2813 26.3866C26.2195 26.2232 26.129 26.0748 26.015 25.9501ZM6.90068 14.8294C6.90068 13.2375 7.32883 11.6813 8.13098 10.3577C8.93314 9.03409 10.0733 8.00246 11.4072 7.39326C12.7411 6.78407 14.209 6.62468 15.6251 6.93524C17.0411 7.24581 18.3419 8.01238 19.3629 9.13802C20.3838 10.2637 21.0791 11.6978 21.3608 13.2591C21.6424 14.8204 21.4979 16.4388 20.9453 17.9095C20.3928 19.3802 19.4571 20.6373 18.2566 21.5217C17.0561 22.4061 15.6447 22.8781 14.2009 22.8781C12.2647 22.8781 10.4079 22.0302 9.03885 20.5207C7.66981 19.0113 6.90068 16.964 6.90068 14.8294Z" fill="#231F20"/>
</svg>
