<svg width="11" height="15" viewBox="0 0 11 15" fill="none" xmlns="http://www.w3.org/2000/svg">
<g clip-path="url(#clip0_890_532)">
<path d="M5.5 0C2.59076 0 0.226562 2.36426 0.226562 5.27344C0.226562 6.25781 0.499082 7.21585 1.01761 8.04202L5.14252 14.7924C5.21289 14.9067 5.31836 14.977 5.44144 14.9946C5.60837 15.0209 5.79303 14.9507 5.88968 14.7837L10.0264 7.97168C10.5185 7.16312 10.7734 6.22269 10.7734 5.27344C10.7734 2.36426 8.40924 0 5.5 0ZM5.5 7.91016C4.0235 7.91016 2.86328 6.71484 2.86328 5.27344C2.86328 3.82321 4.04978 2.63672 5.5 2.63672C6.95022 2.63672 8.13672 3.82321 8.13672 5.27344C8.13672 6.70606 6.99411 7.91016 5.5 7.91016Z" fill="#4B4B4B"/>
<path d="M5.5 0V2.63672C6.95022 2.63672 8.13672 3.82321 8.13672 5.27344C8.13672 6.70606 6.99411 7.91016 5.5 7.91016V14.9997C5.64997 15.0032 5.80419 14.9313 5.88965 14.7837L10.0264 7.97168C10.5185 7.16312 10.7734 6.22269 10.7734 5.27344C10.7734 2.36426 8.40924 0 5.5 0Z" fill="#4B4B4B"/>
</g>
<defs>
<clipPath id="clip0_890_532">
<rect width="11" height="15" fill="white"/>
</clipPath>
</defs>
</svg>
