<svg width="50" height="50" viewBox="0 0 50 50" fill="none" xmlns="http://www.w3.org/2000/svg">
<g clip-path="url(#clip0_2212_139)">
<path opacity="0.966" fill-rule="evenodd" clip-rule="evenodd" d="M9.42383 -0.0488281C17.1712 -0.0488281 24.9187 -0.0488281 32.666 -0.0488281C36.2705 3.40909 39.835 6.92472 43.3594 10.498C43.457 10.6608 43.5547 10.8235 43.6523 10.9863C43.7175 22.9004 43.7175 34.8145 43.6523 46.7285C43.1625 48.3739 42.1045 49.4481 40.4785 49.9512C30.127 49.9512 19.7754 49.9512 9.42383 49.9512C7.79782 49.4481 6.73989 48.3739 6.25 46.7285C6.1849 32.2103 6.1849 17.6921 6.25 3.17383C6.73989 1.52842 7.79782 0.454199 9.42383 -0.0488281ZM9.91211 2.09961C17.0085 2.09961 24.1048 2.09961 31.2012 2.09961C31.1849 4.47613 31.2012 6.85243 31.25 9.22852C31.722 10.8724 32.78 11.9304 34.4238 12.4023C36.7999 12.4512 39.1762 12.4675 41.5527 12.4512C41.569 23.7143 41.5527 34.9772 41.5039 46.2402C41.2598 47.0052 40.7552 47.5098 39.9902 47.7539C29.9642 47.819 19.9382 47.819 9.91211 47.7539C9.14714 47.5098 8.64258 47.0052 8.39844 46.2402C8.33333 32.0476 8.33333 17.8548 8.39844 3.66211C8.66065 2.89549 9.16521 2.37466 9.91211 2.09961ZM33.3496 3.66211C35.5761 5.83969 37.7896 8.03695 39.9902 10.2539C38.2976 10.319 36.6048 10.319 34.9121 10.2539C34.1472 10.0098 33.6426 9.50521 33.3984 8.74023C33.3496 7.04784 33.3333 5.35513 33.3496 3.66211ZM23.4863 18.7988C23.8135 18.7827 24.139 18.799 24.4629 18.8477C24.6569 18.9765 24.7709 19.1555 24.8047 19.3848C24.8698 20.0684 24.8698 20.752 24.8047 21.4355C24.5769 22.2493 24.3489 23.0632 24.1211 23.877C23.1409 22.5972 22.7828 21.1648 23.0469 19.5801C23.1189 19.2727 23.2654 19.0122 23.4863 18.7988ZM24.8535 28.5645C24.9257 28.5517 24.9908 28.568 25.0488 28.6133C25.7649 29.4597 26.5462 30.2409 27.3926 30.957C26.2257 31.2978 25.0538 31.6396 23.877 31.9824C23.8444 31.9499 23.8118 31.9173 23.7793 31.8848C24.1772 30.7888 24.5353 29.682 24.8535 28.5645ZM32.8613 32.373C33.6386 32.24 34.4198 32.2889 35.2051 32.5195C35.3381 32.9914 35.1428 33.2355 34.6191 33.252C33.9782 33.0617 33.3923 32.7688 32.8613 32.373ZM18.9941 36.4746C18.3021 37.4437 17.4883 38.3063 16.5527 39.0625C16.042 39.451 15.4886 39.5486 14.8926 39.3555C14.7949 39.2741 14.6973 39.1927 14.5996 39.1113C14.7761 38.7558 15.0365 38.4791 15.3809 38.2812C16.533 37.575 17.7374 36.9728 18.9941 36.4746Z" fill="#3DA1CC"/>
<path opacity="0.954" fill-rule="evenodd" clip-rule="evenodd" d="M23.3886 16.5529C24.2886 16.4912 25.135 16.6703 25.9277 17.09C26.3981 17.4954 26.7073 17.9999 26.8554 18.6037C27.2207 20.0874 27.1556 21.5522 26.6601 22.9982C26.3903 24.0029 26.0811 24.9958 25.7324 25.9767C27.0007 27.6357 28.4656 29.1005 30.1269 30.3712C31.6492 30.1852 33.1791 30.1202 34.7168 30.1759C37.0107 30.3857 37.8734 31.6064 37.3047 33.838C36.8819 34.7152 36.182 35.2198 35.205 35.3517C34.7493 35.4168 34.2936 35.4168 33.8379 35.3517C32.3181 34.6982 30.9346 33.8355 29.6875 32.7638C27.4175 33.2052 25.1877 33.8075 22.998 34.5705C22.8436 34.6395 22.6971 34.7208 22.5586 34.8146C21.5799 36.8676 20.2616 38.6743 18.6035 40.2345C17.894 40.8663 17.0801 41.3219 16.1621 41.6017C14.6509 41.8154 13.4629 41.3108 12.5976 40.088C12.3312 39.2237 12.4289 38.4099 12.8906 37.6466C13.4723 36.935 14.1722 36.3653 14.9902 35.9376C16.9638 34.9345 18.9496 33.958 20.9472 33.008C21.2308 32.4568 21.475 31.8872 21.6797 31.299C22.198 29.7113 22.7351 28.1326 23.291 26.5626C22.0867 25.1143 21.2566 23.4705 20.8007 21.631C20.6286 20.255 20.8564 18.953 21.4843 17.7248C21.9644 17.0703 22.5992 16.6796 23.3886 16.5529ZM23.4863 18.799C23.2654 19.0124 23.1189 19.2728 23.0468 19.5802C22.7828 21.165 23.1409 22.5973 24.1211 23.8771C24.3489 23.0633 24.5768 22.2495 24.8047 21.4357C24.8698 20.7521 24.8698 20.0685 24.8047 19.3849C24.7709 19.1556 24.6569 18.9766 24.4629 18.8478C24.1389 18.7992 23.8134 18.7829 23.4863 18.799ZM24.8535 28.5646C24.5352 29.6822 24.1771 30.7889 23.7793 31.8849C23.8118 31.9174 23.8444 31.95 23.8769 31.9826C25.0538 31.6397 26.2257 31.2979 27.3925 30.9572C26.5462 30.2411 25.7649 29.4598 25.0488 28.6134C24.9908 28.5681 24.9257 28.5518 24.8535 28.5646ZM32.8613 32.3732C33.3923 32.7689 33.9782 33.0619 34.6191 33.2521C35.1427 33.2357 35.3381 32.9916 35.205 32.5197C34.4198 32.289 33.6385 32.2402 32.8613 32.3732ZM18.9941 36.4748C17.7374 36.9729 16.533 37.5751 15.3808 38.2814C15.0365 38.4792 14.776 38.7559 14.5996 39.1115C14.6972 39.1928 14.7949 39.2743 14.8925 39.3556C15.4885 39.5488 16.042 39.4511 16.5527 39.0626C17.4883 38.3064 18.302 37.4438 18.9941 36.4748Z" fill="#3DA1CC"/>
</g>
<defs>
<clipPath id="clip0_2212_139">
<rect width="50" height="50" fill="white"/>
</clipPath>
</defs>
</svg>
