<svg width="22" height="22" viewBox="0 0 22 22" fill="none" xmlns="http://www.w3.org/2000/svg">
<g clip-path="url(#clip0_1875_208)">
<path opacity="0.975" fill-rule="evenodd" clip-rule="evenodd" d="M10.8288 0.579102C11.1066 0.579102 11.3843 0.579102 11.6621 0.579102C12.4115 0.793754 12.8906 1.27986 13.0996 2.03743C13.1135 2.46799 13.1274 2.89855 13.1413 3.3291C15.7437 4.24216 17.2577 6.0616 17.683 8.78743C17.6918 9.99627 17.7196 11.2046 17.7663 12.4124C17.9948 14.7022 18.8976 16.6744 20.4746 18.3291C20.6744 18.6468 20.6675 18.9593 20.4538 19.2666C20.3843 19.3083 20.3149 19.3499 20.2455 19.3916C18.2731 19.3986 16.3009 19.4194 14.3288 19.4541C13.952 20.7894 13.0909 21.6088 11.7455 21.9124C11.4121 21.9124 11.0788 21.9124 10.7455 21.9124C9.39999 21.6088 8.53891 20.7894 8.16212 19.4541C6.19004 19.4194 4.21782 19.3986 2.24545 19.3916C1.89483 19.2104 1.77677 18.9257 1.89129 18.5374C2.72673 17.6313 3.40729 16.6174 3.93295 15.4958C4.35871 14.5101 4.6226 13.4823 4.72462 12.4124C4.77133 11.2046 4.79912 9.99627 4.80795 8.78743C5.23362 6.06039 6.74749 4.24093 9.34962 3.3291C9.36349 2.89855 9.37741 2.46799 9.39129 2.03743C9.60029 1.27986 10.0795 0.793754 10.8288 0.579102ZM11.0371 1.87077C11.4922 1.81648 11.763 2.01092 11.8496 2.4541C11.8704 2.66197 11.8774 2.87031 11.8705 3.0791C11.4538 3.0791 11.0371 3.0791 10.6205 3.0791C10.609 2.79866 10.6299 2.52088 10.683 2.24577C10.7533 2.07138 10.8713 1.94638 11.0371 1.87077ZM11.2038 4.3291C13.5276 4.45912 15.1596 5.5841 16.0996 7.7041C16.3179 8.29556 16.429 8.90668 16.433 9.53743C16.4468 10.5236 16.4607 11.5096 16.4746 12.4958C16.6575 14.5869 17.3728 16.4688 18.6205 18.1416C13.7038 18.1694 8.78712 18.1694 3.87045 18.1416C5.11812 16.4688 5.83341 14.5869 6.01629 12.4958C6.02216 11.3006 6.04995 10.1062 6.09962 8.91243C6.45591 6.72273 7.68508 5.27135 9.78712 4.55827C10.2582 4.43651 10.7305 4.36013 11.2038 4.3291ZM9.49545 19.4541C10.655 19.4056 11.8217 19.3987 12.9955 19.4333C12.3703 20.6046 11.4537 20.9102 10.2455 20.3499C9.90945 20.1185 9.65945 19.8199 9.49545 19.4541Z" fill="#005275"/>
<path opacity="0.957" fill-rule="evenodd" clip-rule="evenodd" d="M4.91208 2.70424C5.49521 2.68314 5.75216 2.96092 5.68291 3.53758C5.54971 3.79603 5.36916 4.01825 5.14125 4.20424C4.25932 5.21795 3.6621 6.38462 3.34958 7.70424C3.21932 8.4242 3.1221 9.14641 3.05791 9.87091C2.85684 10.1477 2.586 10.238 2.24542 10.1417C2.0718 10.0792 1.95375 9.9612 1.89125 9.78757C1.82445 7.13974 2.69945 4.86195 4.51625 2.95424C4.63469 2.8433 4.76662 2.75996 4.91208 2.70424Z" fill="#005275"/>
<path opacity="0.956" fill-rule="evenodd" clip-rule="evenodd" d="M17.2455 2.70348C17.4705 2.68124 17.6789 2.72985 17.8705 2.84931C19.7604 4.76793 20.6702 7.08043 20.5997 9.78681C20.4185 10.1374 20.1338 10.2555 19.7455 10.141C19.6107 10.0843 19.5065 9.99402 19.433 9.87014C19.4064 8.13856 18.9342 6.54131 18.0163 5.07848C17.7022 4.61134 17.3411 4.18079 16.933 3.78681C16.6644 3.31168 16.7686 2.95057 17.2455 2.70348Z" fill="#005275"/>
</g>
<defs>
<clipPath id="clip0_1875_208">
<rect width="21.3333" height="21.3333" fill="white" transform="translate(0.599609 0.599609)"/>
</clipPath>
</defs>
</svg>
