<svg width="30" height="30" viewBox="0 0 30 30" fill="none" xmlns="http://www.w3.org/2000/svg">
<path opacity="0.973" fill-rule="evenodd" clip-rule="evenodd" d="M13.9159 1.20072C19.5185 1.01819 23.8251 3.26428 26.8358 7.939C29.0455 11.9011 29.3385 16.0027 27.7147 20.2437C25.8921 24.3633 22.816 27.0488 18.4862 28.3003C13.0673 29.5015 8.44813 28.105 4.62876 24.1109C1.48748 20.3202 0.510916 16.0233 1.69907 11.2203C2.97965 6.99043 5.64567 3.99239 9.69712 2.22611C11.0619 1.67976 12.4682 1.33797 13.9159 1.20072ZM14.7948 3.72025C19.5842 3.88182 23.051 6.08884 25.1952 10.3413C26.3505 13.0894 26.4676 15.8824 25.5467 18.7202C24.244 22.1128 21.8807 24.4175 18.4569 25.6343C13.8469 26.9185 9.88204 25.8442 6.56235 22.4117C3.81689 19.0851 3.09423 15.3546 4.39438 11.2203C5.84727 7.44312 8.5328 5.05053 12.451 4.04252C13.2332 3.87649 14.0144 3.76907 14.7948 3.72025Z" fill="#005275"/>
<path opacity="0.958" fill-rule="evenodd" clip-rule="evenodd" d="M12.1583 7.47078C12.6156 7.40522 13.0257 7.51268 13.3887 7.79305C15.4883 9.89264 17.588 11.9923 19.6876 14.0919C20.1299 14.7127 20.1104 15.3182 19.629 15.9083C17.5294 18.0079 15.4297 20.1075 13.3301 22.2071C12.6002 22.6893 11.9459 22.6014 11.3672 21.9434C11.0989 21.4729 11.0989 21.0042 11.3672 20.5372C13.1828 18.6728 15.009 16.8173 16.8458 14.9708C15.0285 13.1438 13.2219 11.3079 11.4258 9.46297C11.005 8.54721 11.2492 7.88317 12.1583 7.47078Z" fill="#005275"/>
</svg>
