<?xml version="1.0" encoding="UTF-8"?>
<!DOCTYPE svg PUBLIC "-//W3C//DTD SVG 1.1//EN" "http://www.w3.org/Graphics/SVG/1.1/DTD/svg11.dtd">
<svg xmlns="http://www.w3.org/2000/svg" version="1.1" width="512px" height="512px" style="shape-rendering:geometricPrecision; text-rendering:geometricPrecision; image-rendering:optimizeQuality; fill-rule:evenodd; clip-rule:evenodd" xmlns:xlink="http://www.w3.org/1999/xlink">
<g><path style="opacity:0.998" fill="#f44336" d="M 232.5,-0.5 C 247.833,-0.5 263.167,-0.5 278.5,-0.5C 378.271,12.4486 449.438,64.4486 492,155.5C 502.136,180.379 508.636,206.046 511.5,232.5C 511.5,247.833 511.5,263.167 511.5,278.5C 498.551,378.271 446.551,449.438 355.5,492C 330.622,502.136 304.955,508.636 278.5,511.5C 263.167,511.5 247.833,511.5 232.5,511.5C 132.727,498.549 61.5605,446.549 19,355.5C 8.86392,330.621 2.36392,304.954 -0.5,278.5C -0.5,263.167 -0.5,247.833 -0.5,232.5C 12.4486,132.729 64.4486,61.5622 155.5,19C 180.379,8.86392 206.046,2.36392 232.5,-0.5 Z"/></g>
<g><path style="opacity:1" fill="#faf8f7" d="M 169.5,155.5 C 177.124,154.449 184.124,155.949 190.5,160C 212.014,181.681 233.68,203.181 255.5,224.5C 278.014,202.152 300.681,179.985 323.5,158C 337.629,152.152 348.129,155.986 355,169.5C 356.549,177.119 355.216,184.119 351,190.5C 329.319,212.014 307.819,233.68 286.5,255.5C 308.848,278.014 331.015,300.681 353,323.5C 357.686,334.3 355.853,343.8 347.5,352C 338.234,356.977 329.234,356.644 320.5,351C 298.986,329.319 277.32,307.819 255.5,286.5C 232.986,308.848 210.319,331.015 187.5,353C 176.634,357.788 167.134,355.954 159,347.5C 154.023,338.234 154.356,329.234 160,320.5C 181.681,298.986 203.181,277.32 224.5,255.5C 202.152,232.986 179.985,210.319 158,187.5C 152.017,173.158 155.85,162.492 169.5,155.5 Z"/></g>
</svg>
