<svg width="30" height="30" viewBox="0 0 30 30" fill="none" xmlns="http://www.w3.org/2000/svg">
<path opacity="0.966" fill-rule="evenodd" clip-rule="evenodd" d="M14.502 4.01367C15.7126 3.90559 16.6989 4.31575 17.4609 5.24414C20.5617 10.6057 23.6476 15.9768 26.7188 21.3574C27.369 22.6025 27.2909 23.794 26.4844 24.9316C26.0062 25.4295 25.43 25.7518 24.7559 25.8984C18.2129 25.9375 11.6699 25.9375 5.12695 25.8984C3.64563 25.5108 2.84485 24.5538 2.72461 23.0273C2.74498 22.3803 2.93053 21.7846 3.28125 21.2402C6.30861 15.9668 9.33592 10.6934 12.3633 5.41992C12.8898 4.66376 13.6027 4.19501 14.502 4.01367ZM14.6777 5.94726C15.2457 5.866 15.6852 6.06129 15.9961 6.5332C19.0773 11.8948 22.1438 17.2659 25.1953 22.6465C25.3547 23.3079 25.1106 23.7473 24.4629 23.9648C18.1153 24.0039 11.7676 24.0039 5.41992 23.9648C4.72505 23.6385 4.5395 23.1209 4.86328 22.4121C7.91016 17.0996 10.957 11.7871 14.0039 6.47461C14.1891 6.23971 14.4137 6.06393 14.6777 5.94726Z" fill="#737370"/>
<path opacity="0.982" fill-rule="evenodd" clip-rule="evenodd" d="M14.6777 11.5137C15.2179 11.4371 15.6182 11.6324 15.8789 12.0996C15.918 13.6621 15.918 15.2246 15.8789 16.7871C15.5692 17.4249 15.0907 17.5909 14.4434 17.2852C14.2716 17.1526 14.1447 16.9866 14.0625 16.7871C14.0234 15.2246 14.0234 13.6621 14.0625 12.0996C14.2004 11.831 14.4055 11.6357 14.6777 11.5137Z" fill="#737370"/>
<path opacity="0.931" fill-rule="evenodd" clip-rule="evenodd" d="M14.7364 19.1895C15.7013 19.187 16.1017 19.6558 15.9376 20.5957C15.6257 21.1947 15.1471 21.3802 14.502 21.1524C13.9283 20.745 13.8013 20.2274 14.1212 19.5996C14.2968 19.4099 14.5019 19.2732 14.7364 19.1895Z" fill="#737370"/>
</svg>
