<svg width="23" height="23" viewBox="0 0 23 23" fill="none" xmlns="http://www.w3.org/2000/svg">
<g clip-path="url(#clip0_2286_183)">
<path opacity="0.974" fill-rule="evenodd" clip-rule="evenodd" d="M9.18654 -0.0234375C10.7139 -0.0234375 12.2412 -0.0234375 13.7686 -0.0234375C14.4866 0.178047 14.9433 0.642242 15.1387 1.36914C15.2242 1.91243 15.3291 2.45149 15.4531 2.98633C15.7692 3.59738 16.2709 3.85942 16.958 3.77246C17.4556 3.60161 17.9498 3.42193 18.4404 3.2334C19.3726 3.03483 20.0839 3.34179 20.5742 4.1543C21.1918 5.25475 21.8207 6.34783 22.461 7.43359C22.7424 8.08424 22.6975 8.71315 22.3262 9.32031C21.8736 9.77308 21.3945 10.1923 20.8887 10.5781C20.4108 11.245 20.4483 11.8814 21.001 12.4873C21.4704 12.8369 21.9121 13.2187 22.3262 13.6328C22.6975 14.24 22.7424 14.8689 22.461 15.5195C21.8207 16.6053 21.1918 17.6984 20.5742 18.7988C20.0839 19.6113 19.3726 19.9183 18.4404 19.7197C17.9498 19.5312 17.4556 19.3515 16.958 19.1807C16.2709 19.0937 15.7692 19.3557 15.4531 19.9668C15.3291 20.5016 15.2242 21.0407 15.1387 21.584C14.9433 22.3109 14.4866 22.7751 13.7686 22.9766C12.2412 22.9766 10.7139 22.9766 9.18654 22.9766C8.46851 22.7751 8.01179 22.3109 7.81642 21.584C7.73089 21.0407 7.62604 20.5016 7.50197 19.9668C7.1859 19.3557 6.68426 19.0937 5.99709 19.1807C5.49949 19.3515 5.00534 19.5312 4.51466 19.7197C3.5825 19.9183 2.87124 19.6113 2.38087 18.7988C1.76332 17.6984 1.13441 16.6053 0.494155 15.5195C0.204264 14.8679 0.249186 14.239 0.628921 13.6328C1.08034 13.1813 1.5595 12.7621 2.06642 12.375C2.54429 11.7081 2.50685 11.0717 1.95412 10.4658C1.48473 10.1162 1.043 9.7344 0.628921 9.32031C0.249186 8.71414 0.204264 8.08523 0.494155 7.43359C1.13441 6.34783 1.76332 5.25475 2.38087 4.1543C2.87124 3.34179 3.5825 3.03483 4.51466 3.2334C5.00534 3.42193 5.49949 3.60161 5.99709 3.77246C6.68426 3.85942 7.1859 3.59738 7.50197 2.98633C7.62604 2.45149 7.73089 1.91243 7.81642 1.36914C8.01179 0.642242 8.46851 0.178047 9.18654 -0.0234375ZM9.59083 1.77344C10.8486 1.77344 12.1065 1.77344 13.3643 1.77344C13.4239 2.43098 13.5512 3.07486 13.7461 3.70508C14.5388 5.28053 15.8041 5.88698 17.542 5.52441C18.0065 5.36966 18.4631 5.19743 18.9121 5.00781C19.5425 6.08014 20.1639 7.15827 20.7764 8.24219C20.4696 8.51136 20.1552 8.77339 19.833 9.02832C18.8352 9.94068 18.4983 11.0562 18.8223 12.375C19.015 12.9867 19.352 13.5033 19.833 13.9248C20.14 14.1719 20.447 14.4189 20.7539 14.666C20.1777 15.7728 19.5638 16.8659 18.9121 17.9453C18.2036 17.5893 17.4549 17.3797 16.666 17.3164C15.0297 17.4104 13.9965 18.2489 13.5664 19.832C13.4843 20.2795 13.417 20.7288 13.3643 21.1797C12.1065 21.1797 10.8486 21.1797 9.59083 21.1797C9.53118 20.5222 9.40387 19.8783 9.209 19.248C8.41631 17.6726 7.15099 17.0661 5.4131 17.4287C4.94865 17.5835 4.49196 17.7557 4.04298 17.9453C3.41259 16.873 2.79117 15.7949 2.17873 14.7109C2.4855 14.4418 2.79995 14.1797 3.12209 13.9248C4.11991 13.0124 4.45682 11.8969 4.13283 10.5781C3.94007 9.96638 3.60315 9.44978 3.12209 9.02832C2.81512 8.78125 2.50815 8.53418 2.20119 8.28711C2.77738 7.18037 3.39131 6.08724 4.04298 5.00781C4.75154 5.36382 5.50025 5.57347 6.28908 5.63672C7.92423 5.54422 8.95744 4.70567 9.38869 3.12109C9.47076 2.67358 9.53814 2.22436 9.59083 1.77344ZM11.0733 8.87109C12.6901 8.79931 13.6859 9.54802 14.0606 11.1172C14.1377 12.6923 13.4114 13.6731 11.8819 14.0596C10.2896 14.1507 9.29386 13.4245 8.89455 11.8809C8.80852 10.2849 9.53477 9.28163 11.0733 8.87109Z" fill="#3DA1CC"/>
<path opacity="0.971" fill-rule="evenodd" clip-rule="evenodd" d="M10.9384 7.03084C12.8688 6.90659 14.3437 7.65526 15.3632 9.27694C16.0232 10.5604 16.098 11.8781 15.5878 13.2301C14.8581 14.7597 13.6527 15.6506 11.9716 15.9029C10.0579 16.0355 8.59798 15.2943 7.59173 13.6793C6.93179 12.3958 6.85695 11.0781 7.36712 9.72616C8.09553 8.21296 9.28596 7.31452 10.9384 7.03084ZM11.0732 8.87264C9.53469 9.28318 8.80844 10.2865 8.89447 11.8824C9.29378 13.426 10.2896 14.1523 11.8818 14.0611C13.4114 13.6746 14.1376 12.6938 14.0605 11.1187C13.6858 9.54957 12.6901 8.80085 11.0732 8.87264Z" fill="#3DA1CC"/>
</g>
<defs>
<clipPath id="clip0_2286_183">
<rect width="23" height="23" fill="white"/>
</clipPath>
</defs>
</svg>
