<svg width="21" height="20" viewBox="0 0 21 20" fill="none" xmlns="http://www.w3.org/2000/svg">
<g id="&#240;&#159;&#166;&#134; icon &#34;star&#34;">
<path id="Vector" d="M14.6775 17.5C14.5438 17.5005 14.412 17.4691 14.293 17.4083L10.0302 15.1833L5.76738 17.4083C5.62896 17.4809 5.47289 17.5133 5.31693 17.5018C5.16096 17.4903 5.01134 17.4355 4.88509 17.3435C4.75884 17.2514 4.66101 17.126 4.60273 16.9813C4.54445 16.8366 4.52805 16.6785 4.55541 16.525L5.39125 11.8333L1.94758 8.49997C1.84014 8.39307 1.76392 8.25902 1.7271 8.11221C1.69029 7.9654 1.69427 7.81136 1.73862 7.66663C1.78706 7.51853 1.87618 7.38693 1.99585 7.28676C2.11552 7.1866 2.26095 7.12189 2.41565 7.09997L7.17996 6.4083L9.27792 2.1333C9.34637 1.99241 9.45323 1.87358 9.58627 1.79044C9.71932 1.7073 9.87316 1.66321 10.0302 1.66321C10.1872 1.66321 10.341 1.7073 10.4741 1.79044C10.6071 1.87358 10.714 1.99241 10.7824 2.1333L12.9055 6.39997L17.6698 7.09163C17.8245 7.11355 17.9699 7.17827 18.0896 7.27843C18.2093 7.37859 18.2984 7.51019 18.3468 7.6583C18.3912 7.80303 18.3951 7.95706 18.3583 8.10388C18.3215 8.25069 18.2453 8.38474 18.1379 8.49163L14.6942 11.825L15.53 16.5166C15.5599 16.6729 15.5442 16.8343 15.485 16.982C15.4258 17.1297 15.3254 17.2573 15.1957 17.35C15.0443 17.4557 14.8621 17.5085 14.6775 17.5Z" fill="#FFCC18"/>
</g>
</svg>
