<svg width="48" height="40" viewBox="0 0 48 40" fill="none" xmlns="http://www.w3.org/2000/svg">
<path d="M42 8H10C9.15657 7.99845 8.32286 7.8198 7.55285 7.47562C6.78284 7.13144 6.09369 6.6294 5.53 6.002C6.09196 5.37219 6.78069 4.86827 7.55103 4.52325C8.32137 4.17824 9.15593 3.99992 10 4H46C48.616 3.988 48.614 0.01 46 0H10C7.34784 0 4.8043 1.05357 2.92893 2.92893C1.05357 4.8043 0 7.34784 0 10L0 30C0 32.6522 1.05357 35.1957 2.92893 37.0711C4.8043 38.9464 7.34784 40 10 40H42C43.5913 40 45.1174 39.3679 46.2426 38.2426C47.3679 37.1174 48 35.5913 48 34V14C48 12.4087 47.3679 10.8826 46.2426 9.75736C45.1174 8.63214 43.5913 8 42 8ZM40 26C37.384 25.988 37.384 22.012 40 22C42.616 22.012 42.616 25.988 40 26Z" fill="#005275"/>
</svg>
